<?xml version="1.0" encoding="utf-8"?>
<!-- Generator: Adobe Illustrator 24.0.1, SVG Export Plug-In . SVG Version: 6.00 Build 0)  -->
<svg version="1.1" id="Capa_1" xmlns="http://www.w3.org/2000/svg" xmlns:xlink="http://www.w3.org/1999/xlink" x="0px" y="0px"
	 viewBox="0 0 331 260.5" style="enable-background:new 0 0 331 260.5;" xml:space="preserve">
<style type="text/css">
	.st0{fill:#7111F4;}
	.st1{fill:#8512FA;}
	.st2{fill:#8A13FC;}
	.st3{fill:#8212F9;}
	.st4{fill:#7E12F8;}
	.st5{fill:#7811F6;}
	.st6{fill:#7C12F7;}
	.st7{fill:#7911F6;}
	.st8{fill:#7211E9;}
	.st9{fill:#FEFEFE;}
	.st10{fill:#7A11EE;}
	.st11{fill:#7211E4;}
	.st12{fill:#F6F0FC;}
	.st13{fill:#F1E6FB;}
	.st14{fill:#FBF7FD;}
</style>
<g>
	<path class="st0" d="M326.98,122.25c0,5.5,0,11,0,16.5c-1.52-0.13-2.98,0.28-4.42,0.63c-8.11,1.98-13.95,6.99-18.32,13.89
		c-5.02,7.92-7.67,16.75-9.49,25.85c-2.83,14.12-3.49,28.4-3.1,42.76c0.1,3.59,0.22,7.18-0.66,10.68
		c-3.27,13.03-11.13,21.58-24.38,24.82c-0.95,0.23-1.97,0.13-2.87,0.6c-35.91,0-71.82,0-107.73,0c0.16-0.81,0.68-1.42,1.17-2.04
		c2.43-3.06,4.87-6.11,7.3-9.17c4.96-6.25,9.92-12.51,14.87-18.77c4.72-5.96,9.45-11.93,14.17-17.89c0.27-0.34,0.79-0.71,0.45-1.17
		c-0.3-0.41-0.85-0.14-1.29-0.06c-1.84,0.35-3.66,0.82-5.52,1.01c-1.23,0.13-2.73,1.01-3.67-0.68c-0.05-0.09-0.22-0.14-0.33-0.15
		c-1.32-0.08-2.64-0.53-3.97-0.26s-2.65,0.16-3.98,0.19c-0.46,0.01-0.95,0.04-1.21-0.46c-0.4-0.77-1.09-0.79-1.82-0.79
		c-2.33,0.01-4.66,0.01-7,0c-0.52,0-1.12,0.16-1.42-0.5c0.53-0.35,1.13-0.25,1.7-0.24c4.7,0.01,9.39,0.04,14.07-0.48
		c1.03-0.11,2.13-0.35,3.08-0.09c1.19,0.33,2.27,0.24,3.43,0.06c7.33-1.18,14.33-3.32,20.76-7.13c6.54-3.88,11.9-8.98,15.56-15.66
		c4.82-8.81,6.06-18.29,4.7-28.18c-0.12-0.86,0.06-1.86-0.53-2.53c-0.99-1.13-1.24-2.52-1.69-3.84c-1.22-3.57-2.84-6.92-5.18-9.91
		c-0.4-0.51-0.95-0.97-0.92-1.72c0.69-0.05,1.15,0.26,1.56,0.82c1.14,1.54,2.18,3.14,3.12,4.81c0.28,0.5,0.58,1,1.23,0.8
		c0.97-0.29,1.25,0.31,1.52,1.01c0.77,1.98,1.55,3.95,2.31,5.93c0.35,0.91,0.8,1.01,1.6,0.43c1.11-0.81,1.82-1.93,2.65-2.97
		c10.95-13.75,21.88-27.52,32.8-41.3c8.78-11.07,17.56-22.15,26.33-33.22c0.35-0.44,0.73-0.81,1.33-0.81
		c0.02,0.49-0.04,1.01,0.06,1.48c0.81,3.63,1.28,7.32,2.21,10.93c1.39,5.4,2.94,10.75,5.27,15.83c2.9,6.33,6.64,12.04,12.45,16.11
		C317.31,120.26,321.88,122.03,326.98,122.25z"/>
	<path class="st1" d="M142,3.02c17.5,0,34.99,0,52.49,0c-0.76,1.5-1.97,2.67-2.99,3.97c-5.53,7.02-11.09,14.03-16.65,21.04
		c-6.31,7.95-12.68,15.85-18.88,23.88c-1.6,2.07-3.44,2.93-5.94,2.88c-1.87-0.04-3.9-0.4-5.58,0.18c-2.72,0.94-5.41,0.77-8.14,0.79
		c-1.84,0.01-3.66-0.07-5.28,1.08c-0.38,0.27-0.94,0.31-1.42,0.42c-1.48,0.36-2.98,0.18-4.48,0.28c-2.79,0.19-5.6,0.42-7.78,2.51
		c-0.96,0.92-2.02,1.79-2.81,2.84c-1.79,2.4-3.44,4.86-3.88,7.98c-0.39,2.82-0.48,5.64-0.41,8.46c0.05,2.03-0.14,3.98-1.02,5.84
		c-0.41,0.88-0.52,1.82-0.51,2.8c0.03,2.83,0.02,5.67,0,8.5c0,0.54,0.01,1.12-0.17,1.6c-0.77,2.03-0.88,4.13-0.83,6.27
		c0.04,1.54,0.11,3.09-0.02,4.62c-0.15,1.68-0.1,3.46-1.09,4.92c-0.91,1.34-1.98,2.57-2.99,3.84c-6.01,7.55-12.04,15.08-18.04,22.64
		c-6.49,8.18-12.94,16.38-19.43,24.57c-7,8.83-14,17.66-21.05,26.46c-1.13,1.41-2.06,3.01-3.58,4.1c-0.02-0.54-0.01-1.08-0.08-1.62
		c-0.57-4.53-1.08-9.08-1.97-13.56c-1.03-5.2-2.37-10.31-4.13-15.32c-1.2-3.43-2.88-6.62-4.4-9.9c0.3-0.9,0.45-1.72-0.96-1.59
		c-0.09-0.15-0.18-0.29-0.27-0.44c0-0.38-0.11-0.69-0.53-0.79c-0.25-0.17-0.41-0.41-0.48-0.7c0.24-0.59,0.44-1.14-0.12-1.72
		c-1.44-1.48-1.39-1.62-0.11-3.23c5.03-6.3,10.04-12.63,15.06-18.94c4.91-6.19,9.81-12.38,14.72-18.57
		c5.69-7.16,11.38-14.32,17.07-21.49c4.89-6.16,9.76-12.32,14.65-18.47c5.66-7.13,11.34-14.25,17-21.38
		c5.28-6.64,10.54-13.29,15.81-19.94c6.18-7.78,12.36-15.56,18.54-23.35C141.69,4.06,142.01,3.61,142,3.02z"/>
	<path class="st2" d="M142,3.02c0.01,0.59-0.32,1.03-0.65,1.45c-6.17,7.79-12.36,15.57-18.54,23.35
		c-5.27,6.64-10.54,13.3-15.81,19.94c-5.66,7.13-11.34,14.25-17,21.38c-4.89,6.15-9.76,12.32-14.65,18.47
		c-5.69,7.16-11.38,14.32-17.07,21.49c-4.91,6.19-9.81,12.38-14.72,18.57c-5.01,6.32-10.02,12.64-15.06,18.94
		c-1.28,1.61-1.34,1.74,0.11,3.23c0.56,0.58,0.36,1.13,0.12,1.72c-0.24-0.28-0.49-0.56-0.71-0.85c-2.53-3.35-5.48-6.24-9.13-8.33
		c-3.67-2.11-7.59-3.5-11.87-3.63c0-5.5,0-11,0-16.5c4.26-0.12,8.16-1.48,11.8-3.59c6.05-3.51,10.12-8.81,13.24-14.92
		c4.62-9.04,6.94-18.77,8.42-28.72c1.83-12.39,2.31-24.86,1.85-37.37c-0.12-3.09-0.03-6.18,0.7-9.19
		c2.94-12.02,10.04-20.32,21.96-24.2c1.63-0.53,3.34-0.83,5.02-1.24C94.01,3.02,118.01,3.02,142,3.02z"/>
	<path class="st3" d="M41.56,195.49c1.51-1.08,2.45-2.68,3.58-4.1c7.04-8.8,14.05-17.63,21.05-26.46
		c6.48-8.18,12.94-16.39,19.43-24.57c6-7.56,12.03-15.09,18.04-22.64c1.01-1.27,2.08-2.5,2.99-3.84c0.99-1.46,0.94-3.24,1.09-4.92
		c0.13-1.53,0.06-3.08,0.02-4.62c-0.05-2.14,0.06-4.24,0.83-6.27c0.18-0.49,0.17-1.06,0.17-1.6c0.02-2.83,0.03-5.67,0-8.5
		c-0.01-0.98,0.1-1.93,0.51-2.8c0.88-1.86,1.07-3.82,1.02-5.84c-0.07-2.83,0.02-5.64,0.41-8.46c0.43-3.12,2.08-5.58,3.88-7.98
		c0.79-1.06,1.84-1.92,2.81-2.84c2.18-2.1,4.99-2.32,7.78-2.51c1.49-0.1,3,0.08,4.48-0.28c0.48-0.12,1.04-0.15,1.42-0.42
		c1.62-1.15,3.43-1.07,5.28-1.08c2.72-0.02,5.42,0.15,8.14-0.79c1.68-0.58,3.71-0.22,5.58-0.18c2.49,0.05,4.34-0.81,5.94-2.88
		c6.2-8.03,12.58-15.93,18.88-23.88c5.56-7.01,11.11-14.01,16.65-21.04c1.02-1.3,2.23-2.47,2.99-3.97c11.17,0,22.33,0,33.5,0
		c-0.01,0.52-0.2,0.97-0.52,1.37c-4.19,5.27-8.38,10.55-12.56,15.82C207.97,29,200.98,37.78,194,46.57
		c-1.99,2.51-3.97,5.02-5.96,7.53c-1.01,1.28-2.21,1.91-3.92,1.47c-1.24-0.32-2.54-0.44-3.82-0.52c-1.7-0.11-3.54-0.33-4.91,0.87
		c-1.53,1.34-3.13,1.39-4.99,1.21c-2.3-0.21-4.68-0.54-6.93,0.24c-1.17,0.41-2.29,0.6-3.51,0.64c-3.26,0.11-6.59-0.58-9.72,0.91
		c-0.18,0.08-0.41,0.04-0.62,0.06c-2.69,0.28-5.4,0.27-8.1,0.25c-0.5,0-1.01,0-1.46,0.26c-0.79,0.46-1.65,0.55-2.54,0.49
		c-4.93-0.32-9.77,0.34-14.6,1.26c-0.71,0.14-1.53,0.14-1.87,1.01c-0.74,0.02-1.47,0.06-2.21,0.07c-0.48,0-0.93,0.02-0.93,0.67
		c-0.51,0.01-0.82,0.35-1.16,0.66c-2.52,2.31-3.07,5.4-3.48,8.59c-0.28,2.2,0.19,4.49-0.35,6.58c-0.84,3.27-0.51,6.53-0.62,9.8
		c-0.05,1.5,0.25,3.07-0.12,4.48c-0.83,3.17-0.56,6.36-0.65,9.56c-0.05,1.7,0.16,3.51-0.34,5.08c-1.45,4.55-0.7,9.17-0.89,13.76
		c-0.04,0.93-0.01,1.93-0.43,2.69c-1.47,2.65-1.01,5.5-1.08,8.3c-0.05,2.04,0.26,4.11-0.14,6.11c-0.47,2.35-0.61,4.69-0.63,7.07
		c-0.03,3.53,0.26,7.06-0.41,10.59c-0.22,1.15-0.52,2.14-1.25,3.03c-1.13,1.38-2.22,2.8-3.33,4.21c-5.86,7.4-11.72,14.8-17.59,22.19
		c-6.64,8.37-13.3,16.74-19.94,25.11c-6.18,7.78-12.34,15.58-18.55,23.35c-0.79,0.99-1.37,2.19-2.58,2.81
		c-1.83-4.6-2.22-9.39-1.98-14.28c0.38-7.68-0.01-15.35-0.39-23.02C41.9,198.28,41.7,196.89,41.56,195.49z"/>
	<path class="st4" d="M263.74,3.02c1.1,0.5,2.32,0.45,3.47,0.73c3.82,0.93,7.41,2.36,10.57,4.75c-1.37,1-2.23,2.46-3.26,3.75
		c-5.58,6.99-11.11,14.01-16.66,21.01c-6.62,8.34-13.24,16.67-19.87,25c-5.41,6.8-10.82,13.6-16.24,20.39
		c-0.85,1.07-1.05,1.05-1.65-0.24c-0.71-1.52-1.67-2.88-2.58-4.27c-0.41-0.63-0.79-1.02-1.61-0.56c-0.61,0.35-1.12,0.07-1.67-0.4
		c-1.39-1.2-2.67-2.5-3.97-3.79c-0.4-0.4-0.82-0.74-1.43-0.54c-0.89,0.3-1.61,0.01-2.3-0.56c-0.61-0.5-1.31-0.89-1.92-1.39
		c-1.56-1.26-3.54-1.53-5.26-2.34c-3.7-1.75-7.58-2.69-11.5-3.64c-1.61-0.39-3.2-0.46-4.83-0.42c-0.62,0.02-1.21,0.23-1.85,0.17
		c-3.62-0.34-7.25-1.03-10.87,0.02c-0.16,0.05-0.33,0.03-0.5,0.04c-3.78,0.1-7.56,0.28-11.33,0.37c-6.15,0.14-12.28,0.9-18.44,0.64
		c-0.49-0.02-1.03-0.1-1.29,0.51c-5.91,0.12-11.83,0.11-17.74,0c0.34-0.86,1.16-0.87,1.87-1.01c4.82-0.92,9.67-1.58,14.6-1.26
		c0.88,0.06,1.74-0.03,2.54-0.49c0.45-0.26,0.96-0.26,1.46-0.26c2.7,0.02,5.41,0.03,8.1-0.25c0.21-0.02,0.44,0.02,0.62-0.06
		c3.13-1.49,6.47-0.8,9.72-0.91c1.22-0.04,2.34-0.23,3.51-0.64c2.24-0.78,4.62-0.46,6.93-0.24c1.86,0.17,3.47,0.13,4.99-1.21
		c1.36-1.2,3.21-0.98,4.91-0.87c1.28,0.08,2.59,0.2,3.82,0.52c1.71,0.44,2.91-0.19,3.92-1.47c1.98-2.51,3.97-5.02,5.96-7.53
		c6.98-8.79,13.97-17.57,20.95-26.36c4.19-5.27,8.38-10.55,12.56-15.82c0.32-0.41,0.51-0.85,0.52-1.37
		C239.91,3.02,251.82,3.02,263.74,3.02z"/>
	<path class="st5" d="M163.75,207.23c0.3,0.65,0.9,0.49,1.42,0.5c2.33,0.01,4.66,0.01,7,0c0.73,0,1.42,0.02,1.82,0.79
		c0.26,0.5,0.75,0.47,1.21,0.46c1.33-0.03,2.66,0.08,3.98-0.19c1.33-0.27,2.64,0.18,3.97,0.26c0.12,0.01,0.28,0.06,0.33,0.15
		c0.94,1.69,2.44,0.81,3.67,0.68c1.85-0.19,3.68-0.66,5.52-1.01c0.44-0.09,0.99-0.35,1.29,0.06c0.34,0.46-0.18,0.83-0.45,1.17
		c-4.72,5.97-9.44,11.93-14.17,17.89c-4.96,6.26-9.91,12.51-14.87,18.77c-2.43,3.06-4.87,6.11-7.3,9.17c-0.49,0.62-1,1.23-1.17,2.04
		c-21.66,0-43.33,0-64.99,0c0.01-0.39,0.16-0.71,0.4-1.02c4.72-5.96,9.43-11.94,14.16-17.89c6.93-8.72,13.87-17.43,20.8-26.15
		c0.39-0.49,0.74-1.01,1.05-1.55c0.36-0.62,0.18-1.15-0.57-1.09c-2,0.17-3.85-0.6-5.79-0.79c-0.98-0.1-1.8-0.35-2.1-1.43
		c-0.12-0.43-0.48-0.64-0.87-0.84c-0.78-0.4-1.55-0.81-2.28-1.29c-1.44-0.94-2.67-2.02-2.34-4.02c0.05-0.27-0.02-0.59-0.12-0.86
		c-0.83-2.24-1.33-4.56-1.52-6.92c-0.12-1.48-0.57-3.09,0.66-4.4c0.5,2.01,0.38,4.11,0.75,6.14c0.39,2.13,0.02,4.36,1.95,6.17
		c2.07,1.94,4.11,3.56,7.05,3.72c1.07,0.06,2.13,0.34,3.2,0.38c2.35,0.08,4.71,0.36,7.04-0.16c6.6-0.5,13.13,0.73,19.71,0.84
		c3.23,0.05,6.46,0.07,9.69,0.16C162.54,206.99,163.15,207.07,163.75,207.23z"/>
	<path class="st6" d="M112.51,189.74c-1.23,1.31-0.78,2.92-0.66,4.4c0.19,2.36,0.69,4.68,1.52,6.92c0.1,0.27,0.17,0.58,0.12,0.86
		c-0.33,2,0.89,3.08,2.34,4.02c0.73,0.47,1.5,0.89,2.28,1.29c0.39,0.2,0.75,0.41,0.87,0.84c0.3,1.08,1.12,1.33,2.1,1.43
		c1.94,0.19,3.79,0.96,5.79,0.79c0.75-0.06,0.93,0.46,0.57,1.09c-0.31,0.54-0.66,1.06-1.05,1.55c-6.93,8.72-13.88,17.43-20.8,26.15
		c-4.73,5.96-9.44,11.93-14.16,17.89c-0.24,0.31-0.39,0.63-0.4,1.02c-7,0-14,0-21,0c-1.58-0.36-3.19-0.65-4.74-1.1
		c-1.54-0.44-3.06-0.97-4.5-1.69c-0.09-0.76,0.22-1.38,0.67-1.95c1.32-1.66,2.63-3.33,3.95-4.99c6.6-8.3,13.2-16.59,19.79-24.89
		c7.01-8.82,14-17.65,21.04-26.45c1.06-1.33,1.67-2.68,1.58-4.44c-0.13-2.41-0.01-4.83-0.04-7.24c-0.02-1.36,0.2-2.63,0.8-3.87
		c0.51-1.05,0.74-2.18,0.73-3.38c-0.04-3.37-0.02-6.74-0.01-10.12c0-0.42-0.09-0.89,0.07-1.24c1.01-2.19,0.64-4.5,0.67-6.77
		c0.05-3.49-0.07-6.99,1.12-10.35c0.11-0.31,0.15-0.66,0.13-0.98c-0.35-6.95,0.67-13.87,0.51-20.81c-0.05-2.33-0.06-4.66,0.71-6.91
		c0.29-0.86,0.31-1.79,0.3-2.72c-0.02-3-0.01-6-0.01-8.99c0-0.53-0.09-1.09,0.25-1.58c0.26,0.36,0.26,0.78,0.25,1.2
		c-0.15,8.82,0.16,17.65-0.19,26.47c-0.29,7.18-0.25,14.38-0.47,21.57C112.26,167.74,112.51,178.74,112.51,189.74z"/>
	<path class="st7" d="M138.75,62.28c0.26-0.6,0.8-0.53,1.29-0.51c6.16,0.26,12.29-0.5,18.44-0.64c3.76-0.09,7.55-0.26,11.33-0.37
		c0.17,0,0.34,0.01,0.5-0.04c3.62-1.06,7.25-0.36,10.87-0.02c0.65,0.06,1.23-0.16,1.85-0.17c1.63-0.04,3.22,0.04,4.83,0.42
		c3.92,0.95,7.8,1.9,11.5,3.64c1.72,0.81,3.7,1.08,5.26,2.34c0.61,0.5,1.31,0.88,1.92,1.39c0.69,0.57,1.4,0.86,2.3,0.56
		c0.61-0.2,1.03,0.14,1.43,0.54c1.3,1.29,2.58,2.59,3.97,3.79c0.54,0.47,1.06,0.74,1.67,0.4c0.81-0.46,1.2-0.07,1.61,0.56
		c0.9,1.4,1.86,2.76,2.58,4.27c0.6,1.28,0.8,1.3,1.65,0.24c5.42-6.79,10.84-13.59,16.24-20.39c6.63-8.33,13.25-16.66,19.87-25
		c5.56-7,11.09-14.03,16.66-21.01c1.03-1.29,1.88-2.75,3.26-3.75c4.78,3.15,8.22,7.47,10.7,12.57c2.22,4.56,3.35,9.4,3.23,14.47
		c-0.15,6.54-0.26,13.07,0.03,19.6c0.22,5.03,0.54,10.06,1.19,15.05c0.12,0.93-0.05,1.9,0.28,2.81c-0.61,0-0.99,0.37-1.33,0.81
		c-8.77,11.08-17.55,22.15-26.33,33.22c-10.93,13.77-21.86,27.54-32.8,41.3c-0.82,1.03-1.54,2.16-2.65,2.97
		c-0.79,0.58-1.25,0.48-1.6-0.43c-0.76-1.98-1.54-3.95-2.31-5.93c-0.27-0.7-0.56-1.3-1.52-1.01c-0.65,0.2-0.95-0.3-1.23-0.8
		c-0.94-1.67-1.98-3.27-3.12-4.81c-0.41-0.56-0.87-0.87-1.56-0.82c-1.49-1.44-2.97-2.89-4.46-4.33c-0.45-0.44-0.88-0.89-1.49-1.11
		c-1.62-0.57-2.63-1.88-3.58-3.18c-1.1-1.53-1.18-3.14,0.13-4.67c0.35-0.41,0.58-0.92,0.93-1.33c2.97-3.43,5.28-7.21,6.83-11.52
		c1.51-4.21,2.48-8.54,2.25-12.94c-0.26-5.01-1.05-10-3.55-14.54c-1.04-1.89-1.75-4.02-3.24-5.61c-4.36-4.66-8.97-8.96-15-11.53
		c-4.05-1.73-8.22-2.93-12.5-3.83c-0.42-0.09-0.83-0.19-1.07,0.32c-0.29,0.01-0.59,0.08-0.87,0.03c-3.91-0.71-7.85-0.91-11.81-0.91
		c-10.36,0-20.72,0-31.08,0C139.75,62.34,139.25,62.3,138.75,62.28z"/>
	<path class="st8" d="M184,63.22c0.24-0.51,0.64-0.41,1.07-0.32c4.28,0.9,8.45,2.1,12.5,3.83c6.03,2.58,10.65,6.88,15,11.53
		c1.48,1.59,2.2,3.71,3.24,5.61c2.49,4.53,3.29,9.53,3.55,14.54c0.23,4.4-0.74,8.73-2.25,12.94c-1.54,4.31-3.86,8.09-6.83,11.52
		c-0.35,0.41-0.58,0.92-0.93,1.33c-1.31,1.53-1.23,3.14-0.13,4.67c0.94,1.31,1.96,2.61,3.58,3.18c0.61,0.22,1.04,0.67,1.49,1.11
		c1.48,1.45,2.97,2.89,4.46,4.33c-0.02,0.75,0.52,1.21,0.92,1.72c2.33,2.99,3.96,6.33,5.18,9.91c0.45,1.32,0.71,2.72,1.69,3.84
		c0.59,0.67,0.41,1.67,0.53,2.53c1.36,9.88,0.12,19.37-4.7,28.18c-3.66,6.68-9.02,11.78-15.56,15.66
		c-6.43,3.81-13.43,5.95-20.76,7.13c-1.16,0.19-2.24,0.27-3.43-0.06c-0.95-0.26-2.06-0.02-3.08,0.09c-4.68,0.52-9.38,0.5-14.07,0.48
		c-0.57,0-1.17-0.11-1.7,0.24c-0.6-0.16-1.21-0.24-1.84-0.26c-3.23-0.09-6.46-0.1-9.69-0.16c-6.58-0.11-13.11-1.33-19.71-0.84
		c-0.24-0.91-1-0.69-1.64-0.75c-3.31-0.33-6.67-0.06-9.85-1.63c-2.95-1.45-5.02-3.36-5.49-6.69c-0.52-3.7-0.78-7.39-0.59-11.16
		c0.28-5.77,0.06-11.56,0.32-17.34c0.15-3.36,0.03-6.73,0.19-10.1c0.23-4.89,0.34-9.8,0.48-14.7c0.18-6.52,0.33-13.06,0.35-19.59
		c0.01-2.53,0.07-5.07,0.17-7.6c0.24-5.98-0.03-11.97,0.53-17.95c0.25-2.64,0-5.33,0.07-7.99c0.02-0.93-0.18-2,0.76-2.71
		c0.03,0.58,0.08,1.16,0.08,1.74c0,35.66,0.01,71.33,0.01,106.99c0,0.42,0.03,0.83,0,1.25c-0.06,0.68,0.26,0.85,0.89,0.84
		c0.99-0.02,1.99,0.04,2.99,0.07c0.09,0.84,0.82,0.97,1.4,1.25c2.2,1.04,4.58,1.29,6.94,1.3c9.32,0.03,18.64,0.24,27.96,0.48
		c7.11,0.18,14.23,0.18,21.35-0.15c3.13-0.15,6.21-0.57,9.29-0.95c5.52-0.67,10.62-2.68,15.46-5.41c5.02-2.82,9.19-6.52,12.45-11.29
		c2.15-3.15,3.5-6.62,4.52-10.24c1.3-4.64,1.9-9.36,1.13-14.17c-0.07-0.43-0.1-0.83-0.61-0.97c-0.05-0.37-0.11-0.74-0.13-1.11
		c-0.66-9.2-4.38-16.86-11.48-22.82c-3.15-2.65-6.78-4.46-10.56-6c0.09-2.54,1.39-4.49,3.07-6.22c1.74-1.79,3.53-3.52,5.01-5.54
		c0.29-0.39,0.74-0.72,0.46-1.31c-0.03-0.27,0.11-0.47,0.27-0.66c1.22-1.44,2.17-3.05,3.04-4.72c2.89-5.56,3.9-11.5,3.18-17.69
		c-0.44-3.79-1.45-7.44-3.18-10.88c-1.16-2.32-2.64-4.43-4.3-6.38c-0.93-1.09-1.86-2.31-3.25-2.95c-0.73-1-1.77-1.65-2.77-2.32
		c-3.47-2.35-7.24-4.04-11.28-5.21C187.83,64.15,185.86,63.9,184,63.22z"/>
	<path class="st2" d="M30.99,155.09c-0.41-0.48-0.73-1.01-0.96-1.59C31.43,153.37,31.28,154.18,30.99,155.09z"/>
	<path class="st2" d="M29.75,153.05c-0.27-0.2-0.44-0.47-0.53-0.79C29.64,152.37,29.75,152.67,29.75,153.05z"/>
	<path class="st4" d="M113.01,107.5c-0.33,0.49-0.25,1.04-0.25,1.58c-0.01,3-0.02,6,0.01,8.99c0.01,0.92-0.01,1.85-0.3,2.72
		c-0.77,2.26-0.76,4.58-0.71,6.91c0.16,6.95-0.87,13.86-0.51,20.81c0.02,0.33-0.02,0.68-0.13,0.98c-1.19,3.36-1.07,6.86-1.12,10.35
		c-0.03,2.27,0.35,4.58-0.67,6.77c-0.16,0.35-0.07,0.82-0.07,1.24c0,3.37-0.03,6.75,0.01,10.12c0.02,1.2-0.21,2.33-0.73,3.38
		c-0.6,1.23-0.82,2.51-0.8,3.87c0.03,2.41-0.08,4.83,0.04,7.24c0.09,1.75-0.52,3.11-1.58,4.44c-7.03,8.8-14.03,17.63-21.04,26.45
		c-6.6,8.3-13.2,16.59-19.79,24.89c-1.32,1.66-2.63,3.33-3.95,4.99c-0.45,0.57-0.76,1.19-0.67,1.95
		c-7.96-3.83-13.35-9.98-16.43-18.21c1.2-0.62,1.79-1.83,2.58-2.81c6.21-7.76,12.37-15.56,18.55-23.35
		c6.64-8.37,13.3-16.74,19.94-25.11c5.87-7.39,11.73-14.8,17.59-22.19c1.11-1.4,2.2-2.82,3.33-4.21c0.73-0.9,1.03-1.88,1.25-3.03
		c0.68-3.52,0.38-7.06,0.41-10.59c0.02-2.38,0.16-4.72,0.63-7.07c0.4-2,0.09-4.07,0.14-6.11c0.07-2.8-0.38-5.65,1.08-8.3
		c0.42-0.76,0.39-1.77,0.43-2.69c0.19-4.59-0.56-9.22,0.89-13.76c0.5-1.57,0.29-3.38,0.34-5.08c0.09-3.19-0.18-6.38,0.65-9.56
		c0.37-1.41,0.07-2.98,0.12-4.48c0.11-3.27-0.22-6.53,0.62-9.8c0.54-2.09,0.07-4.38,0.35-6.58c0.41-3.19,0.96-6.27,3.48-8.59
		c0.34-0.31,0.65-0.65,1.16-0.66c-0.03,0.5-0.05,1-0.08,1.49c-1.88,0.84-2.42,2.63-2.99,4.35c-1.2,3.62-0.84,7.42-0.98,11.13
		c-0.23,6.02-0.1,12.06-0.05,18.09C113.8,101.25,113.26,104.36,113.01,107.5z"/>
	<path class="st9" d="M117.8,64.51c0.03-0.5,0.05-1,0.08-1.49c0-0.65,0.44-0.67,0.93-0.67c0.74,0,1.47-0.04,2.21-0.07
		c5.91,0.11,11.83,0.12,17.74,0c0.5,0.02,0.99,0.06,1.49,0.07c10.36,0,20.72,0,31.08,0c3.96,0,7.9,0.19,11.81,0.91
		c0.28,0.05,0.58-0.02,0.87-0.03c1.86,0.68,3.83,0.93,5.73,1.48c4.04,1.17,7.8,2.86,11.28,5.21c1,0.68,2.04,1.32,2.77,2.32
		l-0.05,0.05c-0.49-0.01-0.83-0.31-1.2-0.59c-2.23-1.67-4.57-3.17-7.15-4.28c-3.46-1.5-7.09-2.37-10.77-3.04
		c-1.21-0.22-2.37-0.12-3.48,0.55c-7.29,4.34-14.6,8.64-21.9,12.96c-0.37,0.22-1.07,0.32-0.96,0.82c0.11,0.53,0.82,0.41,1.28,0.54
		c0.08,0.02,0.17,0.02,0.25,0.02c3.03-0.02,6.06,0.14,9.09,0.21c2.67,0.07,5.31,0.28,7.92,0.83c5.28,1.11,9.89,3.37,13.19,7.85
		c1.37,1.85,1.95,4.02,2.74,6.11c0,0.17,0,0.33,0,0.5c0.08,0.25,0.16,0.5,0.25,0.75c0.02,0.37,0,0.75,0.05,1.12
		c1.37,9.93-3.92,18.39-13.37,21.63c-5.11,1.75-10.36,2.41-15.7,2.47c-6.29,0.07-12.58,0.02-18.87,0.02c-1.46,0-2.92-0.03-4.37,0.01
		c-0.92,0.03-1.28-0.35-1.24-1.26c0.04-1,0.01-2,0.01-3c0-6.29,0.05-12.58-0.03-18.86c-0.03-2.07-0.19-4.15-0.26-6.23
		c-0.06-1.74-0.59-1.96-2.11-1.05c-1.22,0.72-2.43,1.45-3.65,2.17c-4.37,2.58-8.74,5.17-13.11,7.74c-0.93,0.55-1.56,1.29-1.56,2.39
		c-0.01,2-0.21,3.99-0.25,5.98c-0.09,4.87-0.03,9.74-0.03,14.62c0,20.33,0,40.66,0,60.99c0,3.96,0,7.91,0,11.87
		c0,1.87,0,1.87,1.85,1.87c17.16,0,34.32-0.01,51.48,0.01c3.45,0,6.89-0.15,10.33-0.48c7.24-0.7,14.17-2.44,20.62-5.91
		c6.26-3.37,11.15-8.12,14.37-14.47c2.13-4.2,3.21-8.7,3.64-13.41c0.42-4.58,0.09-9.04-1.17-13.46c-1.72-6.02-5.03-11.02-9.81-15.02
		c-1.21-1.01-2.31-2.33-4.06-2.51c-0.08-0.4-0.35-0.63-0.69-0.83c-4.38-2.53-9.11-3.99-14.11-4.66c-0.62-0.08-1.37-0.02-1.39-0.89
		c-0.01-0.79,0.71-0.78,1.27-0.9c4.69-0.99,8.85-3.07,12.49-6.18c0.36-0.31,0.73-0.55,1.22-0.52c-3.95,4.13-8.96,6.28-14.42,7.64
		c3.2,0.4,6.27,1.28,9.34,2.16c3.78,1.54,7.41,3.35,10.56,6c7.1,5.96,10.82,13.62,11.48,22.82c0.03,0.37,0.09,0.74,0.13,1.11
		c-0.09,3.27-0.24,6.52-0.87,9.76c-1.94,9.89-7.2,17.45-15.72,22.74c-8.25,5.12-17.44,7.28-26.98,7.42
		c-18.23,0.26-36.47,0.13-54.7,0.16c-0.54,0-1.08,0.05-1.61,0.08c-1-0.03-1.99-0.09-2.99-0.07c-0.62,0.01-0.95-0.16-0.89-0.84
		c0.04-0.41,0-0.83,0-1.25c0-35.66,0-71.33-0.01-106.99c0-0.58-0.05-1.16-0.08-1.74c0.03-0.49,0.08-0.99,0.08-1.48
		c0.01-5.64,0.01-11.29,0-16.93C117.88,67.74,117.83,66.12,117.8,64.51z M140.11,87.26c-0.02,1.74-0.05,3.49-0.05,5.23
		c-0.01,8.77,0.01,17.54-0.03,26.31c0,0.97,0.24,1.31,1.24,1.25c1.57-0.1,3.16-0.06,4.73-0.07c0.16,0.02,0.33,0.05,0.49,0.05
		c7.92-0.15,15.85,0.34,23.76-0.28c3-0.24,5.95-0.79,8.75-1.97c0.17-0.01,0.35,0.02,0.49-0.04c7.28-2.92,12.13-7.81,12.94-15.98
		c0.21-2.08,0.17-4.14-0.2-6.2c-0.7-3.99-2.41-7.41-5.58-10.05c-4.36-3.63-9.59-5.02-15.03-5.16c-10.23-0.27-20.47-0.12-30.71-0.16
		c-0.61,0-0.91,0.15-0.89,0.83C140.09,83.1,140.09,85.18,140.11,87.26z"/>
	<path class="st10" d="M117.8,64.51c0.03,1.62,0.08,3.23,0.08,4.85c0.01,5.64,0.01,11.29,0,16.93c0,0.49-0.05,0.99-0.08,1.48
		c-0.94,0.7-0.74,1.78-0.76,2.71c-0.07,2.66,0.18,5.35-0.07,7.99c-0.56,5.98-0.29,11.97-0.53,17.95c-0.1,2.54-0.16,5.07-0.17,7.6
		c-0.02,6.53-0.17,13.07-0.35,19.59c-0.13,4.9-0.25,9.8-0.48,14.7c-0.16,3.37-0.04,6.74-0.19,10.1c-0.26,5.78-0.04,11.57-0.32,17.34
		c-0.18,3.77,0.07,7.46,0.59,11.16c0.47,3.33,2.55,5.24,5.49,6.69c3.19,1.57,6.54,1.3,9.85,1.63c0.64,0.06,1.39-0.16,1.64,0.75
		c-2.34,0.51-4.69,0.24-7.04,0.16c-1.07-0.04-2.13-0.32-3.2-0.38c-2.94-0.16-4.99-1.78-7.05-3.72c-1.93-1.81-1.56-4.04-1.95-6.17
		c-0.37-2.03-0.25-4.12-0.75-6.14c0-11-0.24-22,0.09-32.99c0.22-7.19,0.18-14.39,0.47-21.57c0.35-8.83,0.05-17.65,0.19-26.47
		c0.01-0.42,0.01-0.84-0.25-1.2c0.25-3.14,0.79-6.25,0.76-9.42c-0.05-6.03-0.18-12.07,0.05-18.09c0.14-3.71-0.22-7.51,0.98-11.13
		C115.37,67.14,115.91,65.35,117.8,64.51z"/>
	<path class="st11" d="M121.75,198.65c0.54-0.03,1.08-0.08,1.61-0.08c18.23-0.03,36.47,0.1,54.7-0.16
		c9.55-0.14,18.74-2.29,26.98-7.42c8.52-5.29,13.78-12.85,15.72-22.74c0.63-3.24,0.78-6.49,0.87-9.76c0.5,0.14,0.54,0.54,0.61,0.97
		c0.77,4.82,0.17,9.54-1.13,14.17c-1.02,3.61-2.36,7.08-4.52,10.24c-3.26,4.78-7.43,8.47-12.45,11.29
		c-4.84,2.72-9.94,4.73-15.46,5.41c-3.09,0.38-6.17,0.8-9.29,0.95c-7.12,0.33-14.24,0.33-21.35,0.15
		c-9.32-0.24-18.63-0.44-27.96-0.48c-2.36-0.01-4.74-0.26-6.94-1.3C122.57,199.62,121.84,199.5,121.75,198.65z"/>
	<path class="st11" d="M199.47,128.57c-3.06-0.88-6.13-1.75-9.34-2.16c5.46-1.36,10.46-3.52,14.42-7.64
		c0.07-0.07,0.14-0.13,0.22-0.2c0.78-0.25,1.3-0.76,1.55-1.55c0.07-0.07,0.13-0.14,0.2-0.21c0.5-0.44,1-0.87,1.5-1.31
		c0.28,0.59-0.17,0.92-0.46,1.31c-1.49,2.01-3.27,3.75-5.01,5.54C200.86,124.08,199.56,126.04,199.47,128.57z"/>
	<path class="st9" d="M208.01,115.51c-0.5,0.44-1,0.87-1.5,1.31c-0.02-0.44,0.14-0.79,0.42-1.13c5.12-6.24,7.71-13.29,7.08-21.45
		c-0.26-3.35-0.79-6.6-2.03-9.73c-0.12-0.56-0.35-1.07-0.75-1.5c-0.2-0.74-0.51-1.41-1-2c-0.19-0.45-0.33-0.94-0.59-1.35
		c-1.31-2.06-2.79-3.97-4.55-5.67c-0.52-0.51-1.17-0.93-1.38-1.71l0.05-0.05c1.39,0.63,2.32,1.86,3.25,2.95
		c1.66,1.95,3.14,4.06,4.3,6.38c1.73,3.44,2.74,7.09,3.18,10.88c0.71,6.19-0.3,12.13-3.18,17.69c-0.86,1.66-1.81,3.28-3.04,4.72
		C208.12,115.04,207.99,115.24,208.01,115.51z"/>
	<path class="st12" d="M210.24,81.01c0.49,0.59,0.8,1.27,1,2c-0.26,0.75,0.13,1.18,0.75,1.5c1.23,3.13,1.77,6.38,2.03,9.73
		c0.63,8.16-1.96,15.21-7.08,21.45c-0.28,0.34-0.45,0.69-0.42,1.13c-0.07,0.07-0.13,0.14-0.2,0.21c-0.85,0.18-1.37,0.7-1.55,1.55
		c-0.07,0.07-0.14,0.13-0.22,0.2c-0.49-0.03-0.86,0.21-1.22,0.52c-3.64,3.11-7.8,5.19-12.49,6.18c-0.56,0.12-1.29,0.11-1.27,0.9
		c0.02,0.87,0.77,0.8,1.39,0.89c4.99,0.67,9.73,2.13,14.11,4.66c0.34,0.2,0.61,0.42,0.69,0.83c-0.41,0.2-0.84,0.36-1.23,0.59
		c-3.19,1.87-6.4,3.7-9.55,5.64c-1.22,0.75-2.7,1.17-3.47,2.54c-2.86-1.54-5.75-2.98-8.92-3.81c-4.83-1.26-9.77-1.57-14.7-1.66
		c-8.32-0.14-16.65-0.04-24.97-0.04c-0.75,0-1.49,0.03-2.24-0.13c-0.96-0.21-1.45,0.23-1.4,1.2c0.06,1.08,0.23,2.15,0.23,3.23
		c0.01,13.57,0.01,27.14,0.01,40.71c-0.53-0.24-0.5-0.72-0.49-1.18c0.05-1.87-0.35-3.71-0.28-5.59c0.05-1.17-0.34-1.34-1.34-0.75
		c-4.96,2.94-9.9,5.93-14.9,8.81c-1.27,0.73-2.4,1.83-3.98,1.95c0-20.33,0-40.66,0-60.99c1.87-1.08,3.74-2.14,5.6-3.24
		c4.54-2.68,9.08-5.37,13.61-8.08c0.82-0.49,1.25-0.33,1.28,0.65c0.02,0.71-0.03,1.42,0.02,2.12c0.04,0.62-0.29,1.37,0.49,1.8
		c0,1,0.03,2-0.01,3c-0.04,0.91,0.32,1.29,1.24,1.26c1.46-0.04,2.92-0.01,4.37-0.01c6.29,0,12.58,0.05,18.87-0.02
		c5.34-0.06,10.59-0.72,15.7-2.47c9.45-3.24,14.74-11.7,13.37-21.63c-0.05-0.37-0.04-0.75-0.05-1.12c0.27-0.37,0.16-0.61-0.25-0.75
		c0-0.17,0-0.33,0-0.5c0.39-0.63,0.04-1.23-0.16-1.78c-0.39-1.06-0.09-1.67,0.88-2.23c4.37-2.54,8.68-5.18,13.06-7.71
		C207.67,81.87,208.73,80.85,210.24,81.01z"/>
	<path class="st13" d="M118.51,184.24c1.58-0.12,2.71-1.21,3.98-1.95c5-2.88,9.94-5.87,14.9-8.81c1-0.59,1.39-0.42,1.34,0.75
		c-0.08,1.88,0.33,3.72,0.28,5.59c-0.01,0.46-0.04,0.94,0.49,1.18c0.31,0.64,0.91,0.5,1.43,0.49c10.9-0.14,21.8,0.29,32.7-0.23
		c4.1-0.19,8.11-0.87,11.96-2.27c5.95-2.17,10.41-5.95,12.69-12.03c1.26-3.35,1.36-6.84,1.21-10.34c-0.19-4.41-1.65-8.34-4.47-11.8
		c-1.04-1.28-2.47-2.09-3.52-3.32c0.77-1.37,2.26-1.79,3.47-2.54c3.15-1.93,6.36-3.77,9.55-5.64c0.39-0.23,0.82-0.4,1.23-0.59
		c1.75,0.18,2.85,1.5,4.06,2.51c4.78,4,8.09,9,9.81,15.02c1.26,4.41,1.59,8.87,1.17,13.46c-0.43,4.7-1.51,9.2-3.64,13.41
		c-3.22,6.35-8.11,11.1-14.37,14.47c-6.44,3.47-13.38,5.21-20.62,5.91c-3.44,0.33-6.88,0.49-10.33,0.48
		c-17.16-0.02-34.32-0.01-51.48-0.01c-1.85,0-1.85,0-1.85-1.87C118.51,192.16,118.51,188.2,118.51,184.24z"/>
	<path class="st14" d="M210.24,81.01c-1.51-0.15-2.57,0.86-3.73,1.53c-4.38,2.53-8.69,5.17-13.06,7.71
		c-0.97,0.56-1.27,1.17-0.88,2.23c0.2,0.55,0.55,1.15,0.16,1.78c-0.8-2.09-1.38-4.26-2.74-6.11c-3.31-4.48-7.91-6.73-13.19-7.85
		c-2.61-0.55-5.24-0.77-7.92-0.83c-3.03-0.07-6.06-0.23-9.09-0.21c-0.08,0-0.17,0-0.25-0.02c-0.46-0.13-1.17-0.01-1.28-0.54
		c-0.11-0.5,0.59-0.6,0.96-0.82c7.3-4.33,14.61-8.63,21.9-12.96c1.12-0.66,2.27-0.77,3.48-0.55c3.69,0.67,7.31,1.54,10.77,3.04
		c2.58,1.12,4.91,2.61,7.15,4.28c0.37,0.28,0.71,0.57,1.2,0.59c0.2,0.77,0.85,1.2,1.38,1.71c1.76,1.7,3.24,3.62,4.55,5.67
		C209.92,80.07,210.05,80.56,210.24,81.01z"/>
	<path class="st14" d="M139.5,116.5c-0.78-0.43-0.44-1.17-0.49-1.8c-0.05-0.7,0-1.41-0.02-2.12c-0.03-0.98-0.45-1.14-1.28-0.65
		c-4.53,2.7-9.07,5.39-13.61,8.08c-1.86,1.1-3.73,2.16-5.6,3.24c0-4.87-0.06-9.75,0.03-14.62c0.03-1.99,0.24-3.98,0.25-5.98
		c0-1.1,0.63-1.84,1.56-2.39c4.38-2.57,8.74-5.16,13.11-7.74c1.22-0.72,2.43-1.45,3.65-2.17c1.52-0.9,2.05-0.68,2.11,1.05
		c0.07,2.08,0.23,4.15,0.26,6.23C139.56,103.93,139.5,110.22,139.5,116.5z"/>
	<path class="st10" d="M179.01,117.77c-2.8,1.18-5.74,1.73-8.75,1.97c-7.91,0.63-15.84,0.14-23.76,0.28c-0.16,0-0.33-0.03-0.49-0.05
		c-0.07-0.35-0.3-0.57-0.57-0.78c-1.3-0.97-2.12-2.26-2.78-3.75c-0.91-2.05-1.07-4.19-1.11-6.34c-0.09-4.75-0.02-9.5-0.04-14.25
		c-0.01-1.21,0.09-2.41,0.28-3.6c0.67-4.08,2.47-6.01,6.5-6.87c1.14-0.24,2.29-0.42,3.47-0.39c4.28,0.13,8.58-0.27,12.85,0.26
		c3.58,0.45,7.21,0.47,10.76,1.25c3.88,0.85,7.47,2.3,10.17,5.22c4.12,4.45,5.15,9.74,3.41,15.55c-1.43,4.78-4.68,8.05-8.85,10.54
		C179.67,117.08,179.14,117.2,179.01,117.77z M144.5,100.44c0,2.08-0.02,4.16,0.01,6.24c0.03,2.34,0.42,4.61,1.11,6.85
		c0.65,2.11,2.06,3.26,4.16,3.64c1.06,0.19,2.13,0.32,3.22,0.34c3.16,0.06,6.32-0.2,9.47-0.25c4.86-0.08,9.59-0.78,14.2-2.35
		c5.84-1.99,10.23-7.6,9.86-13.94c-0.29-4.9-3.7-9.81-8.37-11.36c-3.41-1.13-6.92-1.64-10.51-1.92c-4.85-0.38-9.69-0.84-14.56-0.67
		c-1.28,0.04-2.6,0.04-3.84,0.34c-2.96,0.72-4.41,2.33-4.72,6.21C144.36,95.85,144.51,98.15,144.5,100.44z"/>
	<path class="st8" d="M179.01,117.77c0.14-0.58,0.67-0.7,1.09-0.95c4.17-2.49,7.42-5.76,8.85-10.54c1.74-5.81,0.7-11.1-3.41-15.55
		c-2.7-2.92-6.29-4.37-10.17-5.22c-3.56-0.78-7.18-0.8-10.76-1.25c-4.27-0.54-8.57-0.13-12.85-0.26c-1.18-0.04-2.33,0.15-3.47,0.39
		c-4.03,0.86-5.84,2.79-6.5,6.87c-0.19,1.19-0.29,2.39-0.28,3.6c0.02,4.75-0.05,9.5,0.04,14.25c0.04,2.15,0.21,4.29,1.11,6.34
		c0.66,1.49,1.48,2.78,2.78,3.75c0.28,0.21,0.51,0.43,0.57,0.78c-1.58,0.02-3.16-0.02-4.73,0.07c-1,0.06-1.24-0.27-1.24-1.25
		c0.04-8.77,0.02-17.54,0.03-26.31c0-1.74,0.04-3.49,0.05-5.23c0.46-0.02,0.74-0.28,0.98-0.66c1.73-2.74,4.33-3.97,7.47-4.36
		c3.4-0.42,6.81-0.15,10.21-0.23c5.79-0.13,11.53,0.41,17.2,1.53c7.92,1.57,14.79,7.05,15.9,16.02c0.09,0.72-0.22,1.63,0.58,2.19
		c-0.81,8.16-5.66,13.06-12.94,15.98C179.35,117.79,179.17,117.76,179.01,117.77z"/>
	<path class="st11" d="M192.44,101.76c-0.8-0.56-0.49-1.47-0.58-2.19c-1.11-8.97-7.98-14.46-15.9-16.02
		c-5.67-1.12-11.41-1.65-17.2-1.53c-3.4,0.07-6.81-0.19-10.21,0.23c-3.14,0.39-5.74,1.61-7.47,4.36c-0.24,0.38-0.51,0.65-0.98,0.66
		c-0.02-2.08-0.02-4.16-0.07-6.24c-0.02-0.68,0.28-0.84,0.89-0.83c10.24,0.04,20.48-0.11,30.71,0.16
		c5.44,0.14,10.67,1.53,15.03,5.16c3.17,2.64,4.87,6.06,5.58,10.05C192.61,97.61,192.65,99.68,192.44,101.76z"/>
	<path class="st14" d="M192.75,94.76c0.41,0.14,0.52,0.38,0.25,0.75C192.91,95.26,192.83,95.01,192.75,94.76z"/>
	<path class="st9" d="M204.77,118.57c0.18-0.85,0.7-1.36,1.55-1.55C206.07,117.81,205.55,118.32,204.77,118.57z"/>
	<path class="st14" d="M211.99,84.51c-0.62-0.32-1.01-0.75-0.75-1.5C211.64,83.44,211.87,83.95,211.99,84.51z"/>
	<path class="st14" d="M191.49,141.5c1.05,1.23,2.47,2.04,3.52,3.32c2.82,3.46,4.28,7.39,4.47,11.8c0.15,3.5,0.05,6.98-1.21,10.34
		c-2.28,6.08-6.74,9.86-12.69,12.03c-3.85,1.4-7.86,2.08-11.96,2.27c-10.9,0.51-21.8,0.09-32.7,0.23c-0.52,0.01-1.12,0.16-1.43-0.49
		c0-13.57,0.01-27.14-0.01-40.71c0-1.08-0.17-2.15-0.23-3.23c-0.05-0.97,0.44-1.41,1.4-1.2c0.74,0.16,1.49,0.13,2.24,0.13
		c8.32,0,16.65-0.1,24.97,0.04c4.94,0.08,9.88,0.39,14.7,1.66C185.75,138.52,188.64,139.96,191.49,141.5z M145.25,180.7
		c7.7,0.01,15.4,0.02,23.1,0.05c3.08,0.01,6.16-0.06,9.22-0.52c3.63-0.55,7.23-1.26,10.43-3.21c2-0.85,3.79-2.06,5.34-3.56
		c3.65-3.55,5.22-8.03,5.53-13.01c0.58-9.39-3-16.91-12.42-20.75c-5.33-2.17-10.94-2.87-16.62-2.92
		c-9.54-0.08-19.08-0.02-28.62-0.05c-0.93,0-1.19,0.22-1.18,1.17c0.04,7.37,0.02,14.75,0.02,22.12c0,6.54,0.01,13.08-0.02,19.62
		c0,0.85,0.19,1.19,1.1,1.13C142.5,180.68,143.88,180.72,145.25,180.7z"/>
	<path class="st4" d="M144.5,100.44c0-2.29-0.14-4.59,0.03-6.87c0.3-3.88,1.76-5.49,4.72-6.21c1.24-0.3,2.56-0.3,3.84-0.34
		c4.87-0.17,9.71,0.29,14.56,0.67c3.59,0.28,7.1,0.79,10.51,1.92c4.67,1.55,8.09,6.46,8.37,11.36c0.37,6.34-4.01,11.95-9.86,13.94
		c-4.61,1.57-9.35,2.27-14.2,2.35c-3.16,0.05-6.31,0.31-9.47,0.25c-1.09-0.02-2.16-0.15-3.22-0.34c-2.1-0.38-3.51-1.53-4.16-3.64
		c-0.69-2.24-1.08-4.52-1.11-6.85C144.48,104.6,144.5,102.52,144.5,100.44z"/>
	<path class="st10" d="M188.01,177.02c-3.21,1.95-6.8,2.66-10.43,3.21c-3.05,0.46-6.13,0.54-9.22,0.52
		c-7.7-0.03-15.4-0.04-23.1-0.05c-0.15-0.25-0.24-0.56-0.45-0.73c-1.64-1.32-2.57-3.04-2.87-5.09c-0.2-1.39-0.42-2.81-0.4-4.21
		c0.05-5.07-0.46-10.14-0.28-15.21c0.02-0.46,0.03-0.93-0.06-1.37c-0.46-2.17-0.12-4.32,0.19-6.45c0.24-1.68,0.76-3.3,1.96-4.64
		c2.26-2.52,5.28-2.9,8.33-2.86c5.56,0.08,11.13,0.33,16.68,0.61c5.19,0.27,10.33,0.74,15.3,2.54c5.9,2.13,9.79,6.05,11.73,11.98
		c2.47,7.58-0.02,15.66-6.35,20.56C188.62,176.16,188.07,176.38,188.01,177.02z M157.55,178.98c4.17,0.2,8.28-0.33,12.43-0.66
		c4.3-0.34,8.51-0.93,12.58-2.32c4.46-1.52,7.89-4.27,9.67-8.75c1.36-3.4,1.42-6.94,0.56-10.43c-0.91-3.67-2.79-6.87-6.05-8.96
		c-3.09-1.98-6.57-2.99-10.17-3.6c-3.32-0.56-6.68-0.74-10.05-0.82c-4.65-0.1-9.27-0.77-13.93-0.68c-1.28,0.02-2.59,0.11-3.83,0.4
		c-3.23,0.75-4.87,3.24-5.02,6.98c-0.26,6.58,0.67,13.12,0.52,19.69c-0.03,1.17,0.07,2.32,0.25,3.48c0.48,3.02,2.21,4.86,5.2,5.44
		C152.3,179.26,154.93,178.83,157.55,178.98z"/>
	<path class="st11" d="M188.01,177.02c0.06-0.64,0.62-0.86,1.03-1.18c6.32-4.9,8.82-12.98,6.35-20.56
		c-1.93-5.93-5.83-9.85-11.73-11.98c-4.97-1.8-10.11-2.27-15.3-2.54c-5.56-0.29-11.12-0.53-16.68-0.61
		c-3.05-0.04-6.07,0.34-8.33,2.86c-1.21,1.34-1.72,2.96-1.96,4.64c-0.31,2.13-0.65,4.28-0.19,6.45c0.09,0.44,0.08,0.91,0.06,1.37
		c-0.18,5.08,0.33,10.14,0.28,15.21c-0.01,1.4,0.2,2.81,0.4,4.21c0.3,2.05,1.23,3.77,2.87,5.09c0.21,0.17,0.3,0.48,0.45,0.73
		c-1.37,0.01-2.75-0.02-4.12,0.06c-0.91,0.06-1.1-0.28-1.1-1.13c0.03-6.54,0.02-13.08,0.02-19.62c0-7.37,0.02-14.75-0.02-22.12
		c-0.01-0.95,0.26-1.17,1.18-1.17c9.54,0.04,19.08-0.03,28.62,0.05c5.69,0.05,11.29,0.75,16.62,2.92c9.42,3.83,13,11.36,12.42,20.75
		c-0.31,4.98-1.88,9.46-5.53,13.01C191.8,174.96,190.01,176.17,188.01,177.02z"/>
	<path class="st5" d="M157.55,178.98c-2.61-0.14-5.24,0.28-7.84-0.23c-2.99-0.58-4.72-2.42-5.2-5.44c-0.18-1.16-0.28-2.31-0.25-3.48
		c0.15-6.57-0.78-13.11-0.52-19.69c0.15-3.74,1.79-6.23,5.02-6.98c1.24-0.29,2.55-0.37,3.83-0.4c4.66-0.08,9.28,0.58,13.93,0.68
		c3.37,0.07,6.73,0.26,10.05,0.82c3.6,0.6,7.08,1.62,10.17,3.6c3.26,2.09,5.14,5.29,6.05,8.96c0.86,3.49,0.8,7.03-0.56,10.43
		c-1.79,4.48-5.22,7.23-9.67,8.75c-4.07,1.39-8.28,1.98-12.58,2.32C165.83,178.65,161.71,179.18,157.55,178.98z M147,166.04
		c0,1.37,0.06,2.75-0.01,4.12c-0.16,2.9,2.09,6.15,5.84,5.82c4.47-0.39,8.95-0.6,13.44-0.51c0.24,0.01,0.5-0.06,0.74-0.12
		c3.08-0.86,6.17-1.62,9.36-1.92c1.32-0.13,2.76-0.23,3.79-1.1c1.38-1.16,2.96-2,4.37-3.1c0.79-0.62,1.45-1.34,1.99-2.21
		c1.19-1.94,1.58-4.2,2.62-6.2c0.23-0.44,0.08-0.98,0.02-1.48c-0.27-2.24-1.45-4.15-2.28-6.18c-0.39-0.95-0.95-1.94-1.94-2.54
		c-2.47-1.5-5.27-2.48-7.95-3.14c-4.03-0.99-8.27-1.31-12.47-1.47c-2.28-0.09-4.58,0.2-6.85-0.25c-1.88-0.37-3.76-0.6-5.69-0.51
		c-3.21,0.16-5.28,1.74-5.61,4.77c-0.25,2.26-0.37,4.62,0.01,6.85C146.91,159.92,146.99,162.96,147,166.04z"/>
	<path class="st7" d="M147,166.04c-0.01-3.07-0.1-6.12-0.62-9.18c-0.38-2.22-0.26-4.58-0.01-6.85c0.33-3.02,2.4-4.61,5.61-4.77
		c1.92-0.1,3.81,0.13,5.69,0.51c2.27,0.45,4.57,0.16,6.85,0.25c4.2,0.16,8.44,0.48,12.47,1.47c2.68,0.66,5.48,1.64,7.95,3.14
		c0.99,0.6,1.55,1.59,1.94,2.54c0.83,2.03,2.01,3.94,2.28,6.18c0.06,0.5,0.21,1.03-0.02,1.48c-1.03,2-1.42,4.26-2.62,6.2
		c-0.54,0.87-1.19,1.59-1.99,2.21c-1.41,1.1-2.99,1.94-4.37,3.1c-1.03,0.87-2.47,0.98-3.79,1.1c-3.2,0.31-6.29,1.07-9.36,1.92
		c-0.24,0.07-0.49,0.13-0.74,0.12c-4.49-0.1-8.97,0.11-13.44,0.51c-3.75,0.33-6-2.93-5.84-5.82C147.07,168.79,147,167.41,147,166.04
		z"/>
</g>
</svg>
