<?xml version="1.0" encoding="utf-8"?>
<!-- Generator: Adobe Illustrator 24.0.1, SVG Export Plug-In . SVG Version: 6.00 Build 0)  -->
<svg version="1.1" id="Capa_1" xmlns="http://www.w3.org/2000/svg" xmlns:xlink="http://www.w3.org/1999/xlink" x="0px" y="0px"
	 viewBox="0 0 228 233" style="enable-background:new 0 0 228 233;" xml:space="preserve">
<style type="text/css">
	.st0{fill:#FEAA65;}
	.st1{fill:#FEAB66;}
	.st2{fill:#FEF2D5;}
	.st3{fill:#FEF1D3;}
	.st4{fill:#FEDA84;}
	.st5{fill:#FEFEFE;}
	.st6{fill:#FE9EB2;}
	.st7{fill:#99EAFA;}
	.st8{fill:#8FEBB9;}
	.st9{fill:#FEDA85;}
	.st10{fill:#FEFDFD;}
</style>
<g>
	<path class="st0" d="M127.43,219.72c-3.1-0.93-6.35-0.97-9.5-1.62c-16.95-3.47-31.89-10.86-44.34-22.93
		c-7.18-6.96-9.66-15.56-7.23-25.26c2.53-10.11,9.05-16.6,19.15-19.28c3.93-1.04,8.05-1.33,11.85-2.92
		c15.62-6.53,24.47-18.22,26.37-35.04c1.19-10.53-2.07-19.85-7.95-28.51c-8.16-12.01-5.34-27.81,6.39-36.3
		c5.41-3.91,11.49-5.31,18.21-4.83c15.6,1.09,29.89,5.9,42.91,14.51c15.86,10.48,27.06,24.72,33.87,42.43
		c4.4,11.45,6.36,23.35,5.71,35.57c-1.02,18.91-7.36,35.94-19.15,50.78c-13.78,17.35-31.8,27.76-53.46,32.04
		c-2.89,0.57-5.86,0.56-8.71,1.37C136.85,219.72,132.14,219.72,127.43,219.72z M132.34,211.41c7.24,0.02,12.13-0.46,16.94-1.4
		c19.01-3.75,34.89-12.93,47.18-27.96c11.68-14.29,17.64-30.81,18.17-49.24c0.22-7.56-0.83-15-2.81-22.31
		c-4.8-17.63-14.46-32.01-28.94-43.1c-10.92-8.36-23.32-13.38-36.9-15.43c-4.03-0.61-8.16-1.15-12.18-0.3
		c-12.78,2.69-18.46,17.52-10.95,28.21c7.85,11.19,10.96,23.49,8.8,37.09c-3.39,21.36-20.51,38.28-41.96,41.29
		c-10.63,1.49-17.42,10.99-15.47,21.61c0.93,5.07,4.05,8.59,7.83,11.83C97.2,204.66,114.82,210.98,132.34,211.41z"/>
	<path class="st1" d="M10.27,34.43c1.15-2.85,1.75-5.93,3.65-8.47c1.13-1.51,2.41-2.85,3.76-4.14c2.52-2.41,2.75-4.75,0.66-7.54
		c-1.16-1.55-1.82-3.14-0.83-4.98c0.96-1.77,2.54-2.33,4.52-2.31C39.21,7.14,53.4,22.75,51.76,39.84c-0.42,4.38-2.2,8.27-5.15,11.56
		c-0.81,0.91-1.19,1.76-0.89,2.97c0.18,0.72,0.14,1.51,0.14,2.27c0.01,37.39,0.01,74.78,0,112.17c0,11.61-3.29,22.07-10.86,31.04
		c-2.48,2.93-5.19,2.9-7.63-0.05c-7.32-8.83-10.77-19.02-10.77-30.44c0-37.8-0.02-75.61,0.05-113.41c0-2.17-0.3-3.83-1.9-5.46
		c-2.52-2.57-3.32-6.11-4.47-9.41C10.27,38.86,10.27,36.64,10.27,34.43z M25.03,85.48c-0.05,0.89-0.14,1.79-0.14,2.68
		c-0.01,26.72-0.02,53.43,0.01,80.15c0,3.03,0.17,6.08,0.77,9.06c0.98,4.83,2.57,9.41,5.58,13.61c3.58-5.62,5.97-11.54,6-18.03
		c0.12-29.14,0.06-58.28,0.06-87.41c0.02-8.5,0.02-17,0.07-25.5c0.01-1.18-0.4-1.55-1.56-1.53c-3.18,0.06-6.36,0.04-9.54,0.01
		c-0.92-0.01-1.4,0.22-1.39,1.26C24.96,68.35,24.99,76.92,25.03,85.48z M43.6,37c-0.63-8.88-4.81-15.6-13.06-19.63
		c-2.18-1.07-2.21-1.01-2.42,1.43c-0.03,0.34-0.12,0.68-0.17,1.02c-0.6,3.85-3.04,6.48-5.67,9.12c-5.23,5.26-4.78,13.2,0.34,17.93
		c4.01,3.7,8.84,4.48,13.82,2.07C41.23,46.6,43.31,42.42,43.6,37z"/>
	<path class="st2" d="M132.34,211.41c-17.53-0.43-35.14-6.75-50.31-19.73c-3.78-3.23-6.9-6.76-7.83-11.83
		c-1.95-10.62,4.84-20.11,15.47-21.61c21.45-3.01,38.57-19.94,41.96-41.29c2.16-13.61-0.95-25.91-8.8-37.09
		c-7.5-10.69-1.83-25.51,10.95-28.21c4.02-0.85,8.15-0.3,12.18,0.3c13.58,2.05,25.98,7.07,36.9,15.43
		c14.48,11.09,24.15,25.47,28.94,43.1c1.99,7.31,3.03,14.76,2.81,22.31c-0.53,18.43-6.49,34.94-18.17,49.24
		c-12.29,15.04-28.16,24.22-47.18,27.96C144.47,210.96,139.58,211.43,132.34,211.41z M115.24,197.73
		c10.3,0.02,18.74-8.24,18.8-18.39c0.06-10.36-8.47-19-18.75-18.99c-10.19,0.02-18.6,8.42-18.62,18.62
		C96.65,189.45,104.83,197.71,115.24,197.73z M182.88,164.48c7.54,0.34,13.57-6.18,13.5-13.47c-0.07-7.56-5.81-13.37-13.46-13.42
		c-6.99-0.05-13.51,5.2-13.5,13.57C169.45,158.64,175.55,164.76,182.88,164.48z M182.8,126.69c8.21,0.33,13.6-6.81,13.62-13.21
		c0.02-7.14-5.3-13.61-13.5-13.64c-7.9-0.03-13.41,6.14-13.5,13.43C169.33,120.79,175.25,126.68,182.8,126.69z M171.09,83.73
		c0.03-7.72-5.62-13.44-13.15-13.63c-6.95-0.18-13.77,5.25-13.72,13.38c0.05,8.26,6.18,13.46,13.37,13.57
		C165.8,97.16,171.43,90.23,171.09,83.73z M171.08,179.65c0.33-8.21-6.91-13.47-13.23-13.57c-7.13-0.11-13.57,6.46-13.53,13.36
		c0.05,7.87,6.27,13.63,13.43,13.63C165,193.09,171.35,187.28,171.08,179.65z"/>
	<path class="st3" d="M37.31,85.54c0,29.14,0.06,58.28-0.06,87.41c-0.03,6.49-2.42,12.41-6,18.03c-3.01-4.2-4.6-8.78-5.58-13.61
		c-0.61-2.99-0.77-6.03-0.77-9.06c-0.04-26.72-0.02-53.43-0.01-80.15c0-0.89,0.09-1.79,0.14-2.68
		C29.12,85.5,33.21,85.52,37.31,85.54z"/>
	<path class="st4" d="M43.6,37c-0.29,5.42-2.37,9.6-7.16,11.93c-4.98,2.42-9.81,1.63-13.82-2.07c-5.12-4.73-5.57-12.67-0.34-17.93
		c2.63-2.64,5.07-5.28,5.67-9.12c0.05-0.34,0.14-0.67,0.17-1.02c0.21-2.44,0.23-2.5,2.42-1.43C38.79,21.4,42.97,28.12,43.6,37z"/>
	<path class="st5" d="M37.31,85.54c-4.1-0.02-8.19-0.04-12.28-0.06c-0.04-8.56-0.07-17.13-0.13-25.69
		c-0.01-1.04,0.47-1.27,1.39-1.26c3.18,0.03,6.36,0.05,9.54-0.01c1.16-0.02,1.57,0.35,1.56,1.53
		C37.33,68.55,37.33,77.05,37.31,85.54z"/>
	<path class="st0" d="M115.24,197.73c-10.42-0.02-18.59-8.28-18.57-18.75c0.02-10.2,8.43-18.6,18.62-18.62
		c10.28-0.02,18.81,8.63,18.75,18.99C133.99,189.49,125.54,197.75,115.24,197.73z M115.19,189.44c5.83,0.05,10.49-4.51,10.53-10.29
		c0.04-5.52-4.72-10.36-10.28-10.45c-5.61-0.09-10.4,4.57-10.47,10.19C104.91,184.76,109.38,189.39,115.19,189.44z"/>
	<path class="st6" d="M182.88,164.48c-7.33,0.28-13.44-5.84-13.45-13.31c-0.02-8.38,6.51-13.62,13.5-13.57
		c7.65,0.05,13.39,5.86,13.46,13.42C196.45,158.3,190.43,164.82,182.88,164.48z"/>
	<path class="st7" d="M182.8,126.69c-7.55-0.01-13.47-5.9-13.38-13.42c0.08-7.29,5.59-13.45,13.5-13.43
		c8.2,0.03,13.52,6.5,13.5,13.64C196.39,119.88,191.01,127.02,182.8,126.69z"/>
	<path class="st8" d="M171.09,83.73c0.33,6.5-5.3,13.43-13.5,13.32c-7.18-0.1-13.32-5.31-13.37-13.57
		c-0.05-8.13,6.77-13.56,13.72-13.38C165.47,70.29,171.12,76.01,171.09,83.73z"/>
	<path class="st9" d="M171.08,179.65c0.27,7.63-6.07,13.44-13.33,13.43c-7.16,0-13.38-5.76-13.43-13.63
		c-0.05-6.91,6.4-13.47,13.53-13.36C164.17,166.18,171.4,171.44,171.08,179.65z"/>
	<path class="st10" d="M115.19,189.44c-5.81-0.05-10.28-4.67-10.21-10.56c0.07-5.62,4.85-10.28,10.47-10.19
		c5.56,0.09,10.33,4.93,10.28,10.45C125.68,184.93,121.02,189.48,115.19,189.44z"/>
</g>
</svg>
