<?xml version="1.0" encoding="utf-8"?>
<!-- Generator: Adobe Illustrator 24.0.1, SVG Export Plug-In . SVG Version: 6.00 Build 0)  -->
<svg version="1.1" id="Capa_1" xmlns="http://www.w3.org/2000/svg" xmlns:xlink="http://www.w3.org/1999/xlink" x="0px" y="0px"
	 viewBox="0 0 249 279" style="enable-background:new 0 0 249 279;" xml:space="preserve">
<style type="text/css">
	.st0{fill:#01CE7F;}
	.st1{fill:#FE4D12;}
	.st2{fill:#B659FE;}
	.st3{fill:#FE7361;}
	.st4{fill:#01BBFE;}
	.st5{fill:#FCFDFE;}
</style>
<g>
	<path class="st0" d="M124.6,185.73c0.04,5.7,0.16,11.4,0.12,17.1c-0.06,8.36,0.43,16.74-0.24,25.08
		c-1.45,18.07-14.85,32.46-32.7,35.34c-0.42,0.07-0.94-0.1-1.16,0.47c-3.5,0-7,0-10.51,0c-0.53-0.85-1.49-0.64-2.24-0.8
		c-19.14-4.03-32.03-20.88-31.08-40.71c0.88-18.48,15.76-34.02,34.7-36.24c1.9,0.3,3.77-0.23,5.65-0.23
		C99.63,185.68,112.11,185.72,124.6,185.73z"/>
	<path class="st1" d="M81.06,107.92c-1.54-0.89-3.32-0.81-4.98-1.22c-18.43-4.6-30.4-20.56-29.82-39.86
		c0.53-17.7,14.1-33.15,32.07-36.43c2.08-0.38,4.23-0.56,6.35-0.57c12.85-0.05,25.71-0.03,38.56-0.03c0.53,0,1.06,0.07,1.59,0.11
		c0,23.94,0.01,47.87,0.01,71.81c0,1.97-0.06,3.95-0.09,5.92c-4.24,0.06-8.49,0.16-12.73,0.16c-8.95-0.01-17.91-0.08-26.86-0.12
		c-0.96-0.35-1.9-0.55-2.81,0.14C81.92,107.86,81.49,107.89,81.06,107.92z"/>
	<path class="st2" d="M85.16,107.7c8.95,0.04,17.91,0.11,26.86,0.12c4.24,0,8.49-0.1,12.73-0.16c0,0.1,0.03,0.19,0.09,0.27
		c0.01,11.19,0.02,22.39,0.03,33.58c0.01,3.58,0.02,7.16,0.03,10.73c-0.04,10.18-0.08,20.36-0.13,30.53
		c-0.01,0.98-0.11,1.96-0.17,2.94c-12.49-0.01-24.97-0.05-37.46,0c-1.88,0.01-3.75,0.54-5.65,0.23c-1.06-0.92-2.43-0.7-3.66-0.96
		c-19.27-4.03-32.53-21.76-31.01-41.48c1.35-17.57,15.01-32.36,32.47-35.17c0.6-0.1,1.18-0.28,1.77-0.43
		c0.43-0.03,0.86-0.05,1.29-0.08C83.29,107.79,84.22,107.74,85.16,107.7z"/>
	<path class="st3" d="M124.76,107.66c0.03-1.97,0.09-3.95,0.09-5.92c0-23.94-0.01-47.87-0.01-71.81
		c12.71-0.04,25.42-0.07,38.13-0.12c5.4-0.02,10.56,1.08,15.53,3.15c15.31,6.38,25.32,23.17,23.5,39.43
		c-1.97,17.59-14.71,31.62-31.46,34.65c-1.64,0.3-3.29,0.52-4.93,0.78c-2.28,0.04-4.56,0.08-6.84,0.12c-11.3,0-22.6,0-33.91,0
		C124.78,107.85,124.75,107.76,124.76,107.66z"/>
	<path class="st4" d="M158.75,107.94c2.28-0.04,4.56-0.08,6.84-0.12c19.54,1.45,33.93,14.8,36.8,34.14
		c2.93,19.74-11.75,39.81-31.56,43.14c-21.87,3.68-41.49-10.01-45.56-31.77c-0.07-0.37-0.24-0.72-0.36-1.08
		c-0.01-3.58-0.02-7.16-0.03-10.74c0.13-0.43,0.31-0.86,0.4-1.3c3.04-15.3,11.97-25.48,26.68-30.58
		C154.15,108.87,156.48,108.49,158.75,107.94z"/>
	<path class="st3" d="M85.16,107.7c-0.94,0.05-1.87,0.09-2.81,0.14C83.26,107.15,84.2,107.35,85.16,107.7z"/>
	<path class="st5" d="M158.75,107.94c-2.27,0.56-4.61,0.94-6.81,1.7c-14.7,5.1-23.63,15.29-26.68,30.58
		c-0.09,0.44-0.26,0.86-0.4,1.3c-0.01-11.19-0.02-22.39-0.03-33.58C136.15,107.93,147.45,107.94,158.75,107.94z"/>
</g>
</svg>
