<?xml version="1.0" encoding="utf-8"?>
<!-- Generator: Adobe Illustrator 24.0.1, SVG Export Plug-In . SVG Version: 6.00 Build 0)  -->
<svg version="1.1" id="Capa_1" xmlns="http://www.w3.org/2000/svg" xmlns:xlink="http://www.w3.org/1999/xlink" x="0px" y="0px"
	 viewBox="0 0 247.2 94.4" style="enable-background:new 0 0 247.2 94.4;" xml:space="preserve">
<style type="text/css">
	.st0{fill:#FF6600;}
	.st1{fill:#FF7900;}
	.st2{fill:#FEFEFE;}
	.st3{fill:#010101;}
</style>
<g>
	<path class="st0" d="M45.93,35.45c0-4.08,0.83-7.21,2.48-9.37c1.65-2.16,4.03-3.24,7.14-3.24c3.11,0,5.48,1.08,7.11,3.24
		c1.63,2.16,2.44,5.29,2.44,9.37v4.3h-6.05v-4.81c0-3.3-1.12-4.96-3.35-4.96c-2.24,0-3.35,1.65-3.35,4.96V52
		c0,3.26,1.12,4.88,3.35,4.88c1.85,0,2.94-1.14,3.28-3.43h-3.13v-7.14h9.26v5.1c0,4.08-0.81,7.21-2.44,9.37
		c-1.63,2.16-4,3.24-7.11,3.24c-3.11,0-5.49-1.08-7.14-3.24c-1.65-2.16-2.48-5.29-2.48-9.37V35.45z M46.8,73.87v-7.29h17.5v7.29
		H46.8z"/>
	<path class="st0" d="M85.22,26.05c1.6,2.14,2.41,5.2,2.41,9.19v5.32H75.16v22.16c0,3.06,1.07,4.59,3.21,4.59
		c2.14,0,3.21-1.53,3.21-4.59V43.33h6.05v18.74c0,3.99-0.8,7.05-2.41,9.19c-1.6,2.14-3.94,3.21-7,3.21s-5.41-1.07-7.04-3.21
		c-1.63-2.14-2.44-5.2-2.44-9.19V35.23c0-3.98,0.81-7.05,2.44-9.19c1.63-2.14,3.97-3.21,7.04-3.21S83.62,23.91,85.22,26.05z
		 M75.16,35.6h6.42v-0.95c0-3.11-1.07-4.67-3.21-4.67c-2.14,0-3.21,1.56-3.21,4.67V35.6z"/>
	<path class="st0" d="M110.74,30.13H91.93v-7.29h18.81V30.13z M91.93,73.87V32.68h9.48c3.4,0,5.84,0.95,7.33,2.84
		c1.48,1.9,2.22,5.13,2.22,9.7v5.98c0,2.48-0.33,4.34-0.98,5.58c-0.66,1.24-1.74,2.25-3.24,3.03v0.15c1.51,0.58,2.59,1.75,3.24,3.5
		c0.66,1.75,0.98,4.18,0.98,7.29v3.13h-6.42V70.3c0-2.33-0.29-3.96-0.87-4.88c-0.58-0.92-1.63-1.39-3.14-1.39h-2.19v9.84H91.93z
		 M100.68,56.74c1.31,0,2.28-0.43,2.92-1.28c0.63-0.85,0.95-2.22,0.95-4.12v-6.05c0-1.9-0.27-3.26-0.8-4.08
		c-0.54-0.83-1.36-1.24-2.48-1.24h-2.92v16.77H100.68z"/>
	<path class="st0" d="M120.43,73.87h-5.83l5.76-51.03h9.77l5.69,51.03h-5.83l-1.09-9.91h-7.36L120.43,73.87z M125.24,31.15
		l-2.92,26.03h5.83L125.24,31.15z"/>
	<path d="M139.46,64.03V22.84h9.77c3.16,0,5.54,1.07,7.14,3.21c1.6,2.14,2.4,5.25,2.4,9.33v16.04c0,4.13-0.8,7.27-2.4,9.4
		c-1.61,2.14-3.99,3.21-7.14,3.21H139.46z M158.78,73.87h-19.1v-7.29h19.1V73.87z M149.15,56.74c2.14,0,3.21-1.65,3.21-4.96V35.01
		c0-3.26-1.07-4.88-3.21-4.88h-3.28v26.61H149.15z"/>
	<path d="M178.9,26.05c1.6,2.14,2.41,5.2,2.41,9.19v5.32h-12.47v22.16c0,3.06,1.07,4.59,3.21,4.59s3.21-1.53,3.21-4.59V43.33h6.05
		v18.74c0,3.99-0.8,7.05-2.41,9.19c-1.6,2.14-3.94,3.21-7,3.21s-5.41-1.07-7.04-3.21c-1.63-2.14-2.44-5.2-2.44-9.19V35.23
		c0-3.98,0.81-7.05,2.44-9.19c1.63-2.14,3.97-3.21,7.04-3.21S177.29,23.91,178.9,26.05z M168.84,35.6h6.42v-0.95
		c0-3.11-1.07-4.67-3.21-4.67s-3.21,1.56-3.21,4.67V35.6z"/>
	<path d="M189.91,73.87l-6.12-51.03h6.42l3.72,39.51h0.66l4.16-39.51h5.91l-6.2,51.03H189.91z"/>
</g>
<g>
	<g>
		<path class="st1" d="M220.79,47.44c-2.58,0.5-4.52,1.61-5.67,3.84c-0.76,1.47-1.03,3.06-0.99,4.7c0.07,2.84,0.39,5.67,0.63,8.5
			c0.16,1.96,0.48,3.91,0.35,5.88c-0.1,1.54-0.98,2.45-2.49,2.7c-1.01,0.17-2.03,0.08-3.05,0.1c-0.28,0.01-0.47,0-0.46,0.39
			c0.02,2.59,0.01,5.18,0.01,7.77c0,0.24,0.03,0.39,0.33,0.38c2.47-0.07,4.95,0.18,7.4-0.32c4.43-0.91,7.44-3.98,8.13-8.43
			c0.42-2.68,0.06-5.35-0.23-8.01c-0.3-2.76-0.7-5.5-0.85-8.27c-0.14-2.6,1.13-4.29,3.67-4.84c0.52-0.11,1.05-0.21,1.57-0.23
			c0.45-0.02,0.56-0.16,0.56-0.6c-0.02-2.17-0.01-4.35-0.01-6.52c0-1.14,0-1.14-1.1-1.28c-0.27-0.03-0.55-0.08-0.82-0.14
			c-2.68-0.55-4.05-2.33-3.85-5.06c0.11-1.54,0.28-3.08,0.44-4.62c0.31-2.99,0.75-5.96,0.81-8.97c0.12-5.71-2.78-9.66-8.1-10.94
			c-2.53-0.61-5.11-0.3-7.67-0.38c-0.4-0.01-0.27,0.3-0.27,0.49c-0.01,2.52,0.01,5.04-0.01,7.56c0,0.42,0.15,0.49,0.52,0.48
			c0.95-0.01,1.9-0.05,2.84,0.07c1.56,0.2,2.5,1.15,2.64,2.73c0.03,0.37,0.04,0.74,0.03,1.11c-0.04,2.11-0.34,4.19-0.51,6.29
			c-0.21,2.56-0.53,5.11-0.48,7.68c0.08,4.1,2.19,6.75,6.17,7.77C220.42,47.28,220.52,47.33,220.79,47.44z"/>
		<path class="st0" d="M220.79,47.44c-0.27-0.11-0.37-0.16-0.48-0.19c-3.98-1.02-6.09-3.67-6.17-7.77
			c-0.05-2.57,0.27-5.12,0.48-7.68c0.18-2.1,0.47-4.18,0.51-6.29c0.01-0.37,0.01-0.74-0.03-1.11c-0.14-1.58-1.08-2.53-2.64-2.73
			c-0.95-0.12-1.89-0.08-2.84-0.07c-0.37,0-0.52-0.06-0.52-0.48c0.02-2.52,0.01-5.04,0.01-7.56c0-0.19-0.13-0.5,0.27-0.49
			c2.56,0.07,5.14-0.24,7.67,0.38c5.32,1.29,8.22,5.24,8.1,10.94c-0.06,3.01-0.51,5.98-0.81,8.97c-0.16,1.54-0.33,3.08-0.44,4.62
			c-0.2,2.73,1.17,4.51,3.85,5.06c0.27,0.06,0.54,0.1,0.82,0.14c1.1,0.13,1.1,0.13,1.1,1.28c0,2.17-0.01,4.35,0.01,6.52
			c0,0.44-0.11,0.59-0.56,0.6c-0.53,0.02-1.06,0.12-1.57,0.23c-2.54,0.55-3.8,2.24-3.67,4.84c0.15,2.77,0.55,5.52,0.85,8.27
			c0.29,2.67,0.65,5.34,0.23,8.01c-0.69,4.44-3.7,7.52-8.13,8.43c-2.45,0.5-4.93,0.25-7.4,0.32c-0.3,0.01-0.33-0.14-0.33-0.38
			c0-2.59,0.01-5.18-0.01-7.77c0-0.39,0.18-0.38,0.46-0.39c1.02-0.02,2.03,0.07,3.05-0.1c1.51-0.26,2.38-1.16,2.49-2.7
			c0.13-1.97-0.19-3.92-0.35-5.88c-0.23-2.83-0.56-5.66-0.63-8.5c-0.04-1.64,0.23-3.22,0.99-4.7
			C216.28,49.05,218.22,47.94,220.79,47.44z"/>
	</g>
</g>
<g>
	<path class="st2" d="M28.72,47.32c2.58-0.5,4.52-1.61,5.67-3.84c0.76-1.47,1.03-3.06,0.99-4.7c-0.07-2.84-0.39-5.67-0.63-8.5
		c-0.16-1.96-0.48-3.91-0.35-5.88c0.1-1.54,0.98-2.45,2.49-2.7c1.01-0.17,2.03-0.08,3.05-0.1c0.28-0.01,0.47,0,0.46-0.39
		c-0.02-2.59-0.01-5.18-0.01-7.77c0-0.24-0.03-0.39-0.33-0.38c-2.47,0.07-4.95-0.18-7.4,0.32c-4.43,0.91-7.44,3.98-8.13,8.43
		c-0.42,2.68-0.06,5.35,0.23,8.01c0.3,2.76,0.7,5.5,0.85,8.27c0.14,2.6-1.13,4.29-3.67,4.84c-0.52,0.11-1.05,0.21-1.57,0.23
		c-0.45,0.02-0.56,0.16-0.56,0.6c0.02,2.17,0.01,4.35,0.01,6.52c0,1.14,0,1.14,1.1,1.28c0.27,0.03,0.55,0.08,0.82,0.14
		c2.68,0.55,4.05,2.33,3.85,5.06c-0.11,1.54-0.28,3.08-0.44,4.62c-0.31,2.99-0.75,5.96-0.81,8.97c-0.12,5.71,2.78,9.66,8.1,10.94
		c2.53,0.61,5.11,0.3,7.67,0.38c0.4,0.01,0.27-0.3,0.27-0.49c0.01-2.52-0.01-5.04,0.01-7.56c0-0.42-0.15-0.49-0.52-0.48
		c-0.95,0.01-1.9,0.05-2.84-0.07c-1.56-0.2-2.5-1.15-2.64-2.73c-0.03-0.37-0.04-0.74-0.03-1.11c0.04-2.11,0.34-4.19,0.51-6.29
		c0.21-2.56,0.53-5.11,0.48-7.68c-0.08-4.1-2.19-6.75-6.17-7.77C29.1,47.48,29,47.43,28.72,47.32z"/>
	<path class="st3" d="M28.72,47.32c0.27,0.11,0.37,0.16,0.48,0.19c3.98,1.02,6.09,3.67,6.17,7.77c0.05,2.57-0.27,5.12-0.48,7.68
		c-0.18,2.1-0.47,4.18-0.51,6.29c-0.01,0.37-0.01,0.74,0.03,1.11c0.14,1.58,1.08,2.53,2.64,2.73c0.95,0.12,1.89,0.08,2.84,0.07
		c0.37,0,0.52,0.06,0.52,0.48c-0.02,2.52-0.01,5.04-0.01,7.56c0,0.19,0.13,0.5-0.27,0.49c-2.56-0.07-5.14,0.24-7.67-0.38
		c-5.32-1.29-8.22-5.24-8.1-10.94c0.06-3.01,0.51-5.98,0.81-8.97c0.16-1.54,0.33-3.08,0.44-4.62c0.2-2.73-1.17-4.51-3.85-5.06
		c-0.27-0.06-0.54-0.1-0.82-0.14c-1.1-0.13-1.1-0.13-1.1-1.28c0-2.17,0.01-4.35-0.01-6.52c0-0.44,0.11-0.59,0.56-0.6
		c0.53-0.02,1.06-0.12,1.57-0.23c2.54-0.55,3.8-2.24,3.67-4.84c-0.15-2.77-0.55-5.52-0.85-8.27c-0.29-2.67-0.65-5.34-0.23-8.01
		c0.69-4.44,3.7-7.52,8.13-8.43c2.45-0.5,4.93-0.25,7.4-0.32c0.3-0.01,0.33,0.14,0.33,0.38c0,2.59-0.01,5.18,0.01,7.77
		c0,0.39-0.18,0.38-0.46,0.39c-1.02,0.02-2.03-0.07-3.05,0.1c-1.51,0.26-2.38,1.16-2.49,2.7c-0.13,1.97,0.19,3.92,0.35,5.88
		c0.23,2.83,0.56,5.66,0.63,8.5c0.04,1.64-0.23,3.22-0.99,4.7C33.24,45.71,31.3,46.82,28.72,47.32z"/>
</g>
</svg>
