<?xml version="1.0" encoding="utf-8"?>
<!-- Generator: Adobe Illustrator 24.0.1, SVG Export Plug-In . SVG Version: 6.00 Build 0)  -->
<svg version="1.1" id="Capa_1" xmlns="http://www.w3.org/2000/svg" xmlns:xlink="http://www.w3.org/1999/xlink" x="0px" y="0px"
	 viewBox="0 0 413 399" style="enable-background:new 0 0 413 399;" xml:space="preserve">
<style type="text/css">
	.st0{fill:#FDFDFD;}
	.st1{fill:#EFBF20;}
	.st2{fill:#71C0E7;}
	.st3{fill:#050503;}
	.st4{fill:#040506;}
	.st5{fill:#090C0E;}
	.st6{fill:#0D0C08;}
	.st7{fill:#07090B;}
	.st8{fill:#F8E3AB;}
	.st9{fill:#060503;}
	.st10{fill:#F7E3AD;}
	.st11{fill:#C3E3FE;}
	.st12{fill:#C1E3FD;}
	.st13{fill:#FAFAFA;}
	.st14{fill:#F8F8F8;}
</style>
<g>
	<path class="st0" d="M289.21,88.17c2.16-0.26,3.8-1.09,3.78-3.61c-0.02-2.45-1.64-3.39-3.76-3.81c-0.01-2.52-0.02-5.03-0.03-7.55
		c2.98-0.19,3.99-1.87,3.86-4.71c-0.14-3.24,0-6.48-0.06-9.72C292.65,38.63,280,21.85,260.5,16.8c-31.81-8.24-63.83-8.27-95.85-1.06
		c-23.32,5.25-36.48,21.77-36.5,45.59c-0.02,17.33-0.08,34.66,0.07,51.99c0.03,3.02-0.86,3.69-3.74,3.67
		c-18.08-0.13-36.15-0.17-54.23-0.03C51.3,117.1,35.3,128.12,29.13,146c-4.86,14.09-6.38,28.88-7.09,43.72
		c-0.12,2.57,1.43,3.8,3.69,4.4c0.02,2.35,0.04,4.69,0.06,7.04c-2.03,0.49-3.83,1.22-3.87,3.77c-0.04,2.65,1.58,3.71,3.89,4.15
		c0.03,2.41,0.07,4.81,0.1,7.22c-2.95,0.8-3.32,2.95-2.97,5.56c1.09,8.14,2.35,16.25,4.2,24.27c5.08,22.01,21.92,35.62,44.42,35.65
		c17.58,0.03,35.16,0.08,52.73-0.06c3.01-0.02,3.98,0.62,3.96,3.82c-0.15,18.45-0.27,36.9,0.03,55.35
		c0.32,19.61,13.58,36.28,32.54,41.14c31.73,8.13,63.62,8.03,95.49,0.99c23.77-5.25,36.73-21.76,36.74-46.15
		c0.01-17.33,0.05-34.66-0.05-51.99c-0.01-2.4,0.55-3.26,3.07-3.15c4.73,0.2,9.47-0.02,14.21,0.09c2.71,0.06,4.24-1.04,4.61-3.73
		c2.4,0,4.79,0,7.19-0.01c0.6,2,1.48,3.7,3.94,3.7c2.43-0.01,3.45-1.53,3.84-3.69c2.4,0,4.79-0.01,7.19-0.01
		c0.58,2.77,2.24,3.9,5.09,3.75c2.98-0.16,5.98-0.01,8.98-0.05c20.17-0.25,36.98-13.23,42.2-32.77c8.84-33.05,7.46-66.2-0.07-99.16
		c-4.53-19.83-21.96-32.75-42.75-32.9c-17.96-0.13-35.91-0.11-53.87,0.05c-3.03,0.03-3.81-0.86-3.64-3.74
		c0.24-4.1-0.02-8.23,0.09-12.34c0.07-2.77-0.81-4.61-3.77-4.98C289.26,93.35,289.23,90.76,289.21,88.17z"/>
	<path class="st1" d="M337.04,278.07c-2.4,0-4.79,0.01-7.19,0.01c-0.36-2.19-1.57-3.68-3.84-3.71c-2.32-0.02-3.37,1.67-3.94,3.7
		c-2.4,0-4.79,0-7.19,0.01c-0.46-3.14-2.59-3.82-5.37-3.82c-10.76,0-21.53-0.08-32.29-0.13c0-3.12,0.26-6.26-0.06-9.34
		c-0.36-3.46,1.03-4.08,4.2-4.06c23.32,0.13,46.63,0.11,69.95,0.05c10.13-0.03,19.13-6.8,21.62-16.4
		c3.14-12.07,4.91-24.38,5.28-36.85c0.27-9.34,0.38-18.7-0.79-28c-1.14-9-2.09-18.06-5.12-26.68c-3.12-8.91-11.47-14.84-20.4-14.93
		c-2.56-0.02-4.69,0.53-4.82,3.38c-0.12,2.69,1.77,3.85,4.33,4.15c8.61,1.02,12.93,4.85,14.84,13.26
		c6.11,26.87,6.25,53.76,0.1,80.65c-2.25,9.84-7.35,13.96-17.3,13.96c-24.56,0.01-49.13,0-73.69,0.01c-4.4,0-5.6,1.18-5.62,5.47
		c-0.03,5.11,0,10.22,0,15.34c-18.69,0.05-37.38,0.1-56.06,0.15c-1.24,0-2.52-0.09-3.72,0.16c-2.1,0.44-3.24,1.83-3.03,4.04
		c0.19,2,1.34,3.16,3.4,3.26c1.12,0.05,2.24,0.03,3.36,0.03c18.69,0.05,37.38,0.1,56.06,0.15c-0.01,11.47,0.03,22.94-0.04,34.41
		c-0.02,2.76,0.44,5.41,3.58,5.52c3.41,0.12,3.98-2.61,3.96-5.52c-0.06-11.47-0.03-22.94-0.04-34.41c1.49-0.05,3.01,0.04,4.47-0.18
		c3.08-0.46,3.96,0.67,3.93,3.81c-0.16,18.21,0.04,36.42-0.13,54.62c-0.15,16.75-11.3,30.92-27.54,34.81
		c-31.06,7.44-62.22,7.68-93.33,0.26c-18.19-4.34-28.9-18.04-28.94-36.71c-0.06-32.55-0.07-65.1,0-97.65
		c0.05-22.19,15.8-37.76,38.04-37.78c24.32-0.02,48.65-0.42,72.95,0.11c26.65,0.58,47.58-20.66,46.44-46.63
		c-0.42-9.58,0.01-19.2-0.12-28.8c-0.03-2.47,0.42-3.46,3.21-3.44c18.33,0.13,36.66-0.04,55,0.11
		c17.03,0.14,31.11,11.09,35.04,27.69c7.4,31.3,7.85,62.72,0.1,94.04c-3.46,13.97-12.43,22.97-26.27,26.99
		c-5.72,1.66-11.64,1.06-17.48,1.05C339.69,274.24,337.71,275.11,337.04,278.07z M243.31,311.58c-9.07-0.01-16.3,7.28-16.26,16.37
		c0.04,9.02,7.46,16.34,16.47,16.25c8.82-0.09,16.13-7.46,16.14-16.25C259.66,318.89,252.36,311.58,243.31,311.58z M269.78,336.65
		c-0.01,0-0.01,0-0.02,0c0,1.37-0.1,2.74,0.02,4.09c0.21,2.21,1.72,3.4,3.74,3.4c1.86,0,3.43-1.18,3.57-3.16
		c0.21-2.84,0.22-5.72-0.01-8.55c-0.16-2-1.66-2.93-3.68-2.9c-2.03,0.03-3.34,1.01-3.59,3.02
		C269.64,333.9,269.78,335.29,269.78,336.65z"/>
	<path class="st2" d="M25.78,201.16c-0.02-2.35-0.04-4.69-0.06-7.04c2.58-0.77,3.77-2.37,3.87-5.18
		c0.37-10.23,2.12-20.29,3.77-30.37c3.89-23.71,20.89-34.72,41.96-34.37c43.99,0.74,88.01,0.23,132.02,0.22
		c1.37,0,2.77,0.06,4.09-0.22c1.95-0.41,2.99-1.83,2.86-3.81c-0.13-1.94-1.19-3.26-3.28-3.4c-1.12-0.08-2.24-0.06-3.36-0.06
		c-22.81,0-45.63-0.02-68.44,0.03c-2.22,0-3.65,0.02-3.62-3.02c0.15-18.57-0.07-37.15,0.15-55.72
		c0.19-16.55,11.39-30.65,27.44-34.45c31.43-7.46,62.96-7.89,94.38-0.06c15.04,3.75,24.18,13.66,27.38,28.9
		c1.11,5.3,0.44,10.69,0.58,16.04c0.07,2.51,0.71,4.46,3.69,4.58c0.01,2.52,0.02,5.03,0.03,7.55c-2.14,0.48-3.74,1.62-3.62,3.97
		c0.11,2.07,1.35,3.39,3.6,3.45c0.02,2.59,0.04,5.18,0.07,7.77c-3.42,0.55-3.78,2.98-3.77,5.84c0.04,18.45,0.04,36.9,0,55.34
		c0,2.48-0.02,5.01-0.44,7.44c-3.28,18.63-17.92,30.99-36.89,31.04c-25.68,0.08-51.36-0.16-77.03,0.09
		c-23.27,0.23-42.24,19.03-42.87,42.25c-0.3,11.09-0.17,22.19-0.06,33.28c0.02,2.48-0.72,3.12-3.15,3.11
		c-18.32-0.1-36.65,0.03-54.97-0.08c-17.22-0.1-31.3-11.5-35.32-28.3c-2-8.37-3.44-16.83-4.36-25.37c-0.31-2.9-1.63-4.3-4.51-4.28
		c-0.03-2.41-0.07-4.81-0.1-7.22c1.95-0.74,3.64-1.8,3.53-4.18C29.23,202.75,27.68,201.73,25.78,201.16z M272.01,109.37
		c0-16.95,0.03-33.91-0.01-50.86c-0.03-10.64-7.93-20.05-18.3-22.02c-1.18-0.22-2.21-0.22-3.15,0.6c-1.06,0.93-1.99,1.93-1.68,3.51
		c0.36,1.8,1.6,2.6,3.26,3.2c9.57,3.41,12.39,7.42,12.39,17.43c0,32.29,0.01,64.58,0,96.87c0,10.1-6.5,16.59-16.59,16.59
		c-25.68,0.01-51.36,0.02-77.04-0.02c-3.88-0.01-7.68,0.52-11.44,1.3c-15.44,3.21-28.19,10.87-38.04,23.22
		c-8.12,10.18-12.83,21.77-14.01,34.76c-0.23,2.54,0.09,4.89,3.39,5.1c3.25,0.2,3.86-1.98,4.09-4.58
		c1.21-13.52,6.6-25.28,16.05-34.87c11.11-11.27,24.78-17.32,40.75-17.4c25.31-0.12,50.62-0.34,75.92,0.09
		c13.31,0.23,25.11-10.87,24.58-24.69C271.54,141.55,272.01,125.45,272.01,109.37z M177.73,87.14c9.09,0.04,16.42-7.2,16.43-16.24
		c0.01-9.01-7.32-16.34-16.38-16.38c-8.74-0.04-16.2,7.34-16.3,16.12C161.38,79.63,168.74,87.11,177.73,87.14z M107.32,253.35
		c0,1.12,0.01,2.24,0,3.37c-0.04,2.32,0.84,3.95,3.37,4c2.36,0.05,3.64-1.44,4.05-3.6c0.21-1.08,0.07-2.24,0.07-3.36
		c0-4.9-1.37-7.41-4.12-7.08C106.44,247.18,107.41,250.59,107.32,253.35z"/>
	<path class="st3" d="M25.9,216.3c2.88-0.02,4.19,1.39,4.51,4.28c0.92,8.54,2.36,17.01,4.36,25.37c4.01,16.8,18.09,28.2,35.32,28.3
		c18.32,0.11,36.65-0.02,54.97,0.08c2.44,0.01,3.18-0.62,3.15-3.11c-0.11-11.09-0.24-22.19,0.06-33.28
		c0.63-23.22,19.61-42.03,42.87-42.25c25.68-0.25,51.35-0.01,77.03-0.09c18.97-0.06,33.61-12.42,36.89-31.04
		c0.43-2.43,0.44-4.96,0.44-7.44c0.03-18.45,0.04-36.9,0-55.34c-0.01-2.85,0.35-5.29,3.77-5.84c2.96,0.37,3.85,2.21,3.77,4.98
		c-0.11,4.11,0.15,8.24-0.09,12.34c-0.17,2.88,0.61,3.77,3.64,3.74c17.96-0.16,35.91-0.18,53.87-0.05
		c20.79,0.15,38.22,13.06,42.75,32.9c7.53,32.96,8.91,66.11,0.07,99.16c-5.22,19.53-22.03,32.51-42.2,32.77
		c-2.99,0.04-5.99-0.12-8.98,0.05c-2.84,0.16-4.51-0.98-5.09-3.75c0.68-2.96,2.66-3.84,5.53-3.83c5.84,0.01,11.76,0.61,17.48-1.05
		c13.84-4.02,22.82-13.02,26.27-26.99c7.75-31.33,7.3-62.74-0.1-94.04c-3.92-16.6-18-27.55-35.04-27.69
		c-18.33-0.15-36.66,0.02-55-0.11c-2.78-0.02-3.24,0.97-3.21,3.44c0.13,9.6-0.3,19.22,0.12,28.8c1.14,25.97-19.79,47.21-46.44,46.63
		c-24.31-0.53-48.63-0.13-72.95-0.11c-22.24,0.02-37.99,15.59-38.04,37.78c-0.07,32.55-0.06,65.1,0,97.65
		c0.03,18.67,10.75,32.37,28.94,36.71c31.11,7.42,62.27,7.17,93.33-0.26c16.24-3.89,27.39-18.06,27.54-34.81
		c0.17-18.21-0.03-36.42,0.13-54.62c0.03-3.14-0.85-4.27-3.93-3.81c-1.47,0.22-2.98,0.13-4.47,0.18c-2.49,0-4.97,0-7.46,0
		c-18.69-0.05-37.38-0.1-56.06-0.15c-1.12,0-2.24,0.02-3.36-0.03c-2.06-0.1-3.21-1.26-3.4-3.26c-0.21-2.21,0.93-3.6,3.03-4.04
		c1.2-0.25,2.48-0.16,3.72-0.16c18.69-0.06,37.38-0.1,56.06-0.15c2.5,0,4.99,0,7.49,0c10.76,0.05,21.53,0.13,32.29,0.13
		c2.78,0,4.91,0.68,5.37,3.82c-0.37,2.69-1.9,3.79-4.61,3.73c-4.73-0.11-9.48,0.12-14.21-0.09c-2.52-0.11-3.08,0.75-3.07,3.15
		c0.1,17.33,0.06,34.66,0.05,51.99c-0.01,24.38-12.97,40.9-36.74,46.15c-31.87,7.04-63.76,7.14-95.49-0.99
		c-18.96-4.86-32.22-21.52-32.54-41.14c-0.3-18.45-0.18-36.9-0.03-55.35c0.03-3.2-0.95-3.84-3.96-3.82
		c-17.58,0.14-35.15,0.09-52.73,0.06c-22.49-0.04-39.34-13.64-44.42-35.65c-1.85-8.02-3.1-16.13-4.2-24.27
		C22.58,219.25,22.95,217.11,25.9,216.3z"/>
	<path class="st4" d="M289.21,73.2c-2.98-0.12-3.62-2.07-3.69-4.58c-0.15-5.35,0.53-10.74-0.58-16.04
		c-3.2-15.23-12.34-25.15-27.38-28.9c-31.42-7.83-62.95-7.39-94.38,0.06c-16.05,3.81-27.25,17.9-27.44,34.45
		c-0.21,18.57,0,37.15-0.15,55.72c-0.03,3.04,1.4,3.03,3.62,3.02c22.81-0.05,45.63-0.03,68.44-0.03c1.12,0,2.25-0.02,3.36,0.06
		c2.09,0.14,3.15,1.46,3.28,3.4c0.13,1.98-0.91,3.4-2.86,3.81c-1.32,0.28-2.72,0.22-4.09,0.22c-44.01,0.01-88.02,0.53-132.02-0.22
		c-21.07-0.36-38.06,10.66-41.96,34.37c-1.66,10.09-3.4,20.15-3.77,30.37c-0.1,2.82-1.3,4.41-3.87,5.18
		c-2.27-0.6-3.82-1.83-3.69-4.4c0.72-14.84,2.23-29.64,7.09-43.72c6.17-17.88,22.17-28.91,41.13-29.05
		c18.08-0.14,36.15-0.1,54.23,0.03c2.89,0.02,3.77-0.64,3.74-3.67c-0.16-17.33-0.09-34.66-0.07-51.99
		c0.02-23.82,13.18-40.35,36.5-45.59c32.02-7.2,64.04-7.17,95.85,1.06c19.5,5.05,32.15,21.83,32.51,41.97
		c0.06,3.24-0.09,6.49,0.06,9.72C293.2,71.33,292.18,73.01,289.21,73.2z"/>
	<path class="st5" d="M25.78,201.16c1.9,0.57,3.45,1.59,3.55,3.74c0.11,2.37-1.58,3.43-3.53,4.18c-2.31-0.43-3.93-1.5-3.89-4.15
		C21.96,202.38,23.75,201.66,25.78,201.16z"/>
	<path class="st6" d="M322.07,278.07c0.57-2.03,1.62-3.72,3.94-3.7c2.27,0.02,3.48,1.52,3.84,3.71c-0.39,2.16-1.41,3.68-3.84,3.69
		C323.55,281.78,322.66,280.07,322.07,278.07z"/>
	<path class="st7" d="M289.21,88.17c-2.25-0.06-3.49-1.38-3.6-3.45c-0.12-2.35,1.48-3.49,3.62-3.97c2.12,0.42,3.74,1.36,3.76,3.81
		C293.02,87.08,291.38,87.91,289.21,88.17z"/>
	<path class="st8" d="M277.22,274.13c-2.49,0-4.99,0-7.49,0c0-5.11-0.03-10.22,0-15.34c0.02-4.29,1.22-5.47,5.62-5.47
		c24.56-0.01,49.13,0,73.69-0.01c9.95-0.01,15.05-4.12,17.3-13.96c6.15-26.89,6-53.78-0.1-80.65c-1.91-8.41-6.23-12.24-14.84-13.26
		c-2.56-0.3-4.46-1.46-4.33-4.15c0.13-2.84,2.26-3.4,4.82-3.38c8.93,0.09,17.28,6.02,20.4,14.93c3.02,8.62,3.98,17.68,5.12,26.68
		c1.17,9.29,1.06,18.66,0.79,28c-0.36,12.47-2.14,24.78-5.28,36.85c-2.5,9.6-11.5,16.38-21.62,16.4
		c-23.32,0.06-46.63,0.08-69.95-0.05c-3.17-0.02-4.56,0.6-4.2,4.06C277.47,267.87,277.22,271.02,277.22,274.13z"/>
	<path class="st9" d="M243.31,311.58c9.05,0.01,16.35,7.31,16.35,16.37c0,8.79-7.32,16.16-16.14,16.25
		c-9.01,0.09-16.43-7.22-16.47-16.25C227.01,318.85,234.24,311.57,243.31,311.58z M243.27,319.07c-4.88,0.02-8.72,3.86-8.74,8.72
		c-0.01,5,4.02,8.97,9.01,8.86c4.84-0.11,8.64-4.08,8.56-8.94C252.03,322.85,248.14,319.05,243.27,319.07z"/>
	<path class="st10" d="M269.75,281.93c2.49,0,4.97,0,7.46,0c0.01,11.47-0.02,22.94,0.04,34.41c0.01,2.91-0.55,5.64-3.96,5.52
		c-3.14-0.11-3.6-2.77-3.58-5.52C269.77,304.88,269.74,293.4,269.75,281.93z"/>
	<path class="st8" d="M269.78,336.65c0-1.37-0.14-2.75,0.03-4.09c0.26-2.01,1.56-2.99,3.59-3.02c2.02-0.03,3.52,0.9,3.68,2.9
		c0.23,2.83,0.22,5.71,0.01,8.55c-0.15,1.98-1.71,3.16-3.57,3.16c-2.02,0-3.53-1.2-3.74-3.4c-0.13-1.35-0.02-2.73-0.02-4.09
		C269.76,336.65,269.77,336.65,269.78,336.65z"/>
	<path class="st11" d="M272.01,109.37c0,16.08-0.48,32.18,0.15,48.24c0.54,13.81-11.26,24.91-24.58,24.69
		c-25.3-0.44-50.61-0.21-75.92-0.09c-15.96,0.08-29.64,6.12-40.75,17.4c-9.45,9.59-14.84,21.35-16.05,34.87
		c-0.23,2.6-0.84,4.78-4.09,4.58c-3.31-0.21-3.62-2.56-3.39-5.1c1.18-12.99,5.89-24.57,14.01-34.76
		c9.85-12.36,22.61-20.02,38.04-23.22c3.76-0.78,7.56-1.3,11.44-1.3c25.68,0.04,51.36,0.03,77.04,0.02
		c10.09,0,16.59-6.49,16.59-16.59c0.01-32.29,0.01-64.58,0-96.87c0-10.01-2.82-14.02-12.39-17.43c-1.66-0.59-2.9-1.4-3.26-3.2
		c-0.31-1.58,0.62-2.58,1.68-3.51c0.94-0.82,1.97-0.82,3.15-0.6c10.37,1.97,18.27,11.38,18.3,22.02
		C272.04,75.46,272.01,92.41,272.01,109.37z"/>
	<path class="st4" d="M177.73,87.14c-8.99-0.04-16.35-7.52-16.24-16.51c0.1-8.78,7.56-16.16,16.3-16.12
		c9.06,0.04,16.39,7.38,16.38,16.38C194.15,79.94,186.82,87.18,177.73,87.14z M186.68,71.06c0.09-4.96-3.94-9.02-8.93-9
		c-4.77,0.02-8.77,4.04-8.76,8.82c0.01,4.77,3.99,8.75,8.77,8.79C182.59,79.71,186.59,75.85,186.68,71.06z"/>
	<path class="st12" d="M107.33,253.35c0.08-2.76-0.88-6.17,3.36-6.67c2.76-0.33,4.12,2.18,4.12,7.08c0,1.12,0.14,2.27-0.07,3.36
		c-0.42,2.17-1.69,3.65-4.05,3.6c-2.53-0.05-3.41-1.68-3.37-4C107.34,255.59,107.32,254.47,107.33,253.35z"/>
	<path class="st13" d="M243.27,319.07c4.87-0.02,8.76,3.78,8.84,8.64c0.08,4.86-3.72,8.83-8.56,8.94c-4.99,0.11-9.02-3.85-9.01-8.86
		C234.55,322.93,238.39,319.09,243.27,319.07z"/>
	<path class="st14" d="M186.68,71.06c-0.08,4.79-4.09,8.65-8.91,8.61c-4.79-0.04-8.76-4.03-8.77-8.79c-0.01-4.77,3.99-8.8,8.76-8.82
		C182.74,62.04,186.77,66.1,186.68,71.06z"/>
</g>
</svg>
