<?xml version="1.0" encoding="utf-8"?>
<!-- Generator: Adobe Illustrator 24.0.1, SVG Export Plug-In . SVG Version: 6.00 Build 0)  -->
<svg version="1.1" id="Capa_1" xmlns="http://www.w3.org/2000/svg" xmlns:xlink="http://www.w3.org/1999/xlink" x="0px" y="0px"
	 viewBox="0 0 413 408" style="enable-background:new 0 0 413 408;" xml:space="preserve">
<style type="text/css">
	.st0{fill:url(#SVGID_1_);}
	.st1{fill:url(#SVGID_2_);}
</style>
<linearGradient id="SVGID_1_" gradientUnits="userSpaceOnUse" x1="-74.1602" y1="605.463" x2="-58.3372" y2="589.587" gradientTransform="matrix(12.5 0 0 -12.5 977.5 7609.1099)">
	<stop  offset="0" style="stop-color:#387EB8"/>
	<stop  offset="1" style="stop-color:#366994"/>
</linearGradient>
<path class="st0" d="M211.56,5.11c-101.55,0-95.21,44.04-95.21,44.04l0.13,45.62h96.9v13.69H77.96c0,0-64.96-7.38-64.96,95.1
	c0,102.45,56.71,98.82,56.71,98.82h33.85v-47.55c0,0-1.82-56.71,55.81-56.71h96.1c0,0,54,0.88,54-52.19V58.2
	C309.48,58.2,317.68,5.11,211.56,5.11z M158.13,35.78c9.64,0,17.44,7.8,17.44,17.44s-7.8,17.44-17.44,17.44
	c-9.62,0.01-17.42-7.77-17.44-17.39c0-0.02,0-0.03,0-0.05C140.69,43.58,148.49,35.78,158.13,35.78z"/>
<linearGradient id="SVGID_2_" gradientUnits="userSpaceOnUse" x1="-64.4295" y1="595.356" x2="-47.4355" y2="579.0751" gradientTransform="matrix(12.5 0 0 -12.5 977.5 7609.1099)">
	<stop  offset="0" style="stop-color:#FFE052"/>
	<stop  offset="1" style="stop-color:#FFC331"/>
</linearGradient>
<path class="st1" d="M214.44,403.02c101.55,0,95.21-44.04,95.21-44.04l-0.12-45.63h-96.9v-13.69h135.4c0,0,64.98,7.38,64.98-95.09
	s-56.71-98.83-56.71-98.83h-33.85v47.54c0,0,1.83,56.71-55.81,56.71h-96.1c0,0-54-0.88-54,52.19v87.74
	C116.53,349.93,108.33,403.02,214.44,403.02z M267.88,372.35c-9.62,0.01-17.42-7.77-17.44-17.39c0-0.02,0-0.03,0-0.05
	c0-9.63,7.8-17.43,17.44-17.43c9.64,0,17.44,7.79,17.44,17.43C285.31,364.56,277.51,372.35,267.88,372.35z"/>
</svg>
