<?xml version="1.0" encoding="utf-8"?>
<!-- Generator: Adobe Illustrator 24.0.1, SVG Export Plug-In . SVG Version: 6.00 Build 0)  -->
<svg version="1.1" id="Capa_1" xmlns="http://www.w3.org/2000/svg" xmlns:xlink="http://www.w3.org/1999/xlink" x="0px" y="0px"
	 viewBox="0 0 384 384" style="enable-background:new 0 0 384 384;" xml:space="preserve">
<style type="text/css">
	.st0{fill:#FEFEFE;}
	.st1{fill:#E3F5F9;}
	.st2{fill:#000102;}
	.st3{fill:#0A779A;}
	.st4{fill:#030404;}
	.st5{fill:#030302;}
	.st6{fill:#060707;}
	.st7{fill:#030405;}
	.st8{fill:#070707;}
	.st9{fill:#040505;}
	.st10{fill:#A8D91F;}
	.st11{fill:#70D6EB;}
	.st12{fill:#73DCF1;}
	.st13{fill:#000203;}
</style>
<g>
	<path class="st0" d="M234.48,364.5c5.82,0.01,11.65,0.01,17.47,0.02c0.54,3.75,2.78,5.26,6.47,5.21c6.6-0.08,13.21,0.04,19.82-0.04
		c11.57-0.14,20.37-8.82,20.37-20.39c0.04-103.59,0.04-207.18,0-310.77c0-11.79-8.8-20.51-20.61-20.52
		c-53.6-0.04-107.19-0.04-160.79,0c-11.8,0.01-20.54,8.76-20.59,20.54c-0.07,18.82,0.03,37.65-0.06,56.47
		c-0.02,3.84,1.43,6.18,5.27,6.88c0,6.07,0,12.14,0,18.22c-3.05,0.48-5.13,2.03-5.2,5.32c-0.1,4.49-0.23,8.99,0.05,13.46
		c0.19,2.96,1.57,5.42,5.16,5.46c0,5.64-0.01,11.28-0.01,16.91c-3.73,0.53-5.25,2.72-5.25,6.43c0.03,60.55,0,121.1,0.05,181.65
		c0.01,11.53,8.82,20.31,20.39,20.33c37,0.07,74,0.01,110.99,0.05C231.71,369.73,233.95,368.24,234.48,364.5z"/>
	<path class="st1" d="M101.85,120.12c0-6.07,0-12.14,0-18.22c3.84-0.7,5.36-3.04,5.28-6.89c-0.13-6.36-0.04-12.72-0.04-19.08
		c0-9.5,3.28-12.8,12.79-12.8c51.86,0,103.73,0,155.59,0c9.32,0,12.69,3.33,12.69,12.53c0,78.8,0,157.61,0,236.41
		c0,9.01-3.42,12.47-12.37,12.47c-52.11,0.01-104.23,0.01-156.34,0c-8.96,0-12.36-3.45-12.36-12.47c0-47.88,0-95.76,0-143.64
		c0-4.87-0.84-5.99-5.24-7.17c0-5.64,0.01-11.28,0.01-16.91c3.88-0.83,5.47-3.25,5.27-7.18c-0.17-3.44-0.13-6.9-0.01-10.35
		C107.25,123.03,105.7,120.71,101.85,120.12z M197.25,169.18c19.07,0,38.14,0,57.21,0c5.74,0,7.4-1.61,7.4-7.24
		c0.01-21.69,0.01-43.38,0-65.07c0-5.54-1.62-7.22-7.02-7.22c-38.14-0.01-76.28-0.01-114.42,0c-5.29,0-7.01,1.67-7.02,6.84
		c-0.02,21.94-0.02,43.88,0,65.82c0.01,5.16,1.78,6.87,7.02,6.87C159.36,169.19,178.3,169.18,197.25,169.18z M197.68,304.05
		c3.86,0,7.73,0.06,11.59-0.02c4.09-0.08,5.95-1.82,6.01-5.95c0.11-7.73,0.11-15.46,0-23.18c-0.06-4.23-2.04-6.08-6.32-6.12
		c-7.6-0.06-15.21-0.07-22.81,0c-4.09,0.04-6.12,1.88-6.18,5.86c-0.13,7.85-0.12,15.71,0,23.56c0.06,4.07,1.96,5.76,6.12,5.83
		C189.96,304.1,193.82,304.05,197.68,304.05z M151.22,304.04c3.74,0,7.48,0.04,11.22-0.01c4.45-0.06,6.2-1.67,6.24-6.02
		c0.08-7.73,0.08-15.46,0-23.18c-0.04-4.08-1.92-5.99-5.95-6.03c-7.73-0.09-15.45-0.08-23.18,0c-4.06,0.04-6.08,1.96-6.13,5.93
		c-0.1,7.85-0.1,15.71,0,23.56c0.05,3.83,2,5.66,5.83,5.75C143.24,304.11,147.23,304.04,151.22,304.04z M244.19,304.04
		c3.99,0,7.98,0.08,11.96-0.02c3.61-0.09,5.61-1.93,5.66-5.53c0.12-7.97,0.12-15.95,0-23.93c-0.05-3.6-2.04-5.68-5.54-5.74
		c-8.1-0.13-16.2-0.13-24.3,0c-3.33,0.06-5.36,1.97-5.38,5.43c-0.06,8.1-0.1,16.2,0,24.3c0.05,3.68,1.89,5.39,5.63,5.47
		C236.21,304.11,240.2,304.04,244.19,304.04z M173.46,181.61c-4.11,0-8.21,0-12.32,0c-7.47,0.01-14.93-0.03-22.4,0.05
		c-3.27,0.04-5.19,1.99-5.25,5.12c-0.06,2.97,1.8,4.81,4.81,5.22c1.1,0.15,2.23,0.11,3.35,0.11c18.29,0.01,36.59,0,54.88,0
		c3.73,0,7.47,0.12,11.2-0.05c3.9-0.17,6.32-3,5.53-6.33c-0.77-3.21-3.13-4.16-6.2-4.15C195.87,181.64,184.66,181.61,173.46,181.61z
		 M246.03,181.61c-3.11,0-6.21,0-9.32,0c-0.25,0-0.5-0.01-0.75,0.01c-3.56,0.19-5.62,2.05-5.66,5.1c-0.05,3.04,2,5.26,5.46,5.34
		c6.83,0.15,13.67,0.14,20.5,0c3.37-0.07,5.62-2.45,5.58-5.32c-0.05-2.88-2.33-4.99-5.75-5.09
		C252.74,181.54,249.38,181.62,246.03,181.61z M149.24,204.39c-3.48,0-6.96-0.09-10.44,0.03c-3.21,0.11-5.07,1.96-5.34,5.11
		c-0.25,2.88,2.2,5.26,5.49,5.3c6.84,0.1,13.67,0.1,20.51,0c3.48-0.05,5.51-2.15,5.47-5.26c-0.04-3.05-2.13-5.06-5.61-5.16
		C155.96,204.3,152.6,204.38,149.24,204.39z"/>
	<path class="st2" d="M101.84,161.27c4.4,1.18,5.24,2.3,5.24,7.17c0.01,47.88,0,95.76,0,143.64c0,9.02,3.41,12.47,12.36,12.47
		c52.11,0.01,104.23,0.01,156.34,0c8.95,0,12.37-3.47,12.37-12.47c0-78.8,0-157.61,0-236.41c0-9.19-3.37-12.53-12.69-12.53
		c-51.86,0-103.73,0-155.59,0c-9.51,0-12.79,3.29-12.79,12.8c0,6.36-0.1,12.72,0.04,19.08c0.08,3.84-1.44,6.18-5.28,6.89
		c-3.84-0.7-5.29-3.04-5.27-6.88c0.09-18.82-0.01-37.65,0.06-56.47c0.04-11.78,8.78-20.53,20.59-20.54
		c53.6-0.04,107.19-0.04,160.79,0c11.81,0.01,20.6,8.73,20.61,20.52c0.04,103.59,0.04,207.18,0,310.77
		c0,11.57-8.81,20.25-20.37,20.39c-6.6,0.08-13.21-0.04-19.82,0.04c-3.68,0.05-5.93-1.47-6.47-5.21c0.54-3.96,2.93-5.4,6.76-5.33
		c6.36,0.12,12.72,0.08,19.07,0.02c5.13-0.05,8.82-2.42,9.79-7.01c1.32-6.29,0.51-12.7,0.42-19.49c-5.57,2.5-10.91,2.42-16.26,2.42
		c-50.24-0.02-100.49-0.02-150.73-0.01c-4,0-7.99-0.08-11.74-1.68c-1.75-0.75-2.19-0.14-2.17,1.54c0.05,3.99,0.01,7.98,0.01,11.97
		c0.01,8.81,3.43,12.27,12.15,12.27c36.03,0,72.06,0,108.09,0.01c4.88,0,5.99,0.84,7.14,5.27c-0.53,3.74-2.77,5.23-6.45,5.23
		c-37-0.04-74,0.02-110.99-0.05c-11.57-0.02-20.38-8.8-20.39-20.33c-0.05-60.55-0.02-121.1-0.05-181.65
		C96.59,163.98,98.12,161.79,101.84,161.27z M197.98,28.48c-26.68,0-53.36-0.02-80.04,0.01c-6.39,0.01-10.55,3.57-10.79,9.44
		c-0.2,4.85-0.01,9.72-0.07,14.59c-0.02,1.82,0.35,2.55,2.34,1.68c3.01-1.32,6.24-1.61,9.5-1.61c52.36,0.01,104.72,0.01,157.08,0.01
		c3.25,0,6.53,0.17,9.52,1.5c2.46,1.09,2.7,0.06,2.66-2c-0.08-3.86-0.02-7.73-0.02-11.59c-0.01-8.51-3.51-12.02-12.02-12.02
		C250.09,28.47,224.03,28.48,197.98,28.48z"/>
	<path class="st3" d="M234.48,364.5c-1.15-4.42-2.26-5.27-7.14-5.27c-36.03-0.01-72.06,0-108.09-0.01
		c-8.72,0-12.14-3.47-12.15-12.27c0-3.99,0.03-7.98-0.01-11.97c-0.02-1.68,0.42-2.29,2.17-1.54c3.75,1.6,7.74,1.68,11.74,1.68
		c50.24-0.01,100.49-0.02,150.73,0.01c5.36,0,10.7,0.09,16.26-2.42c0.09,6.79,0.9,13.2-0.42,19.49c-0.96,4.59-4.66,6.96-9.79,7.01
		c-6.36,0.07-12.72,0.11-19.07-0.02c-3.84-0.07-6.23,1.37-6.76,5.33C246.13,364.51,240.3,364.5,234.48,364.5z"/>
	<path class="st4" d="M101.85,120.12c3.85,0.59,5.4,2.91,5.27,6.71c-0.12,3.45-0.16,6.91,0.01,10.35c0.2,3.94-1.39,6.35-5.27,7.18
		c-3.59-0.04-4.97-2.5-5.16-5.46c-0.28-4.47-0.15-8.97-0.05-13.46C96.72,122.15,98.79,120.6,101.85,120.12z"/>
	<path class="st5" d="M197.25,169.18c-18.95,0-37.89,0.01-56.84,0c-5.24,0-7.01-1.71-7.02-6.87c-0.02-21.94-0.02-43.88,0-65.82
		c0.01-5.17,1.73-6.84,7.02-6.84c38.14-0.01,76.28-0.01,114.42,0c5.4,0,7.02,1.67,7.02,7.22c0.01,21.69,0.01,43.38,0,65.07
		c0,5.64-1.66,7.24-7.4,7.24C235.39,169.19,216.32,169.18,197.25,169.18z M197.3,158.7c16.83,0,33.66-0.05,50.49,0.05
		c2.56,0.01,3.7-0.29,3.67-3.35c-0.17-17.33-0.14-34.66-0.02-51.99c0.02-2.66-0.8-3.32-3.37-3.31
		c-33.66,0.08-67.32,0.08-100.98-0.01c-2.7-0.01-3.29,0.88-3.27,3.41c0.1,17.33,0.11,34.66-0.01,51.99
		c-0.02,2.7,0.84,3.28,3.38,3.26C163.89,158.65,180.59,158.7,197.3,158.7z"/>
	<path class="st6" d="M197.68,304.05c-3.86,0-7.73,0.05-11.59-0.01c-4.16-0.07-6.06-1.76-6.12-5.83c-0.12-7.85-0.13-15.71,0-23.56
		c0.07-3.98,2.09-5.82,6.18-5.86c7.6-0.07,15.21-0.07,22.81,0c4.28,0.04,6.26,1.89,6.32,6.12c0.11,7.73,0.11,15.46,0,23.18
		c-0.06,4.12-1.92,5.87-6.01,5.95C205.41,304.1,201.55,304.05,197.68,304.05z M197.49,293.57c7.36,0,7.36,0,7.38-7.41
		c0.01-6.92,0.01-6.92-7.09-6.92c-7.38,0-7.38,0-7.38,7.38C190.4,293.57,190.4,293.57,197.49,293.57z"/>
	<path class="st7" d="M151.22,304.04c-3.99,0-7.98,0.07-11.96-0.02c-3.84-0.08-5.78-1.91-5.83-5.75c-0.11-7.85-0.11-15.71,0-23.56
		c0.05-3.97,2.07-5.88,6.13-5.93c7.73-0.08,15.45-0.08,23.18,0c4.03,0.04,5.9,1.95,5.95,6.03c0.08,7.73,0.08,15.46,0,23.18
		c-0.04,4.35-1.79,5.96-6.24,6.02C158.7,304.08,154.96,304.04,151.22,304.04z M150.93,279.25c-7.06,0-7.06,0-7.06,6.9
		c0,7.41,0,7.41,7.29,7.41c7.05,0,7.05,0,7.05-6.88C158.2,279.25,158.2,279.25,150.93,279.25z"/>
	<path class="st7" d="M244.19,304.04c-3.99,0-7.98,0.07-11.96-0.02c-3.74-0.08-5.58-1.79-5.63-5.47c-0.1-8.1-0.07-16.2,0-24.3
		c0.03-3.46,2.06-5.37,5.38-5.43c8.1-0.14,16.2-0.13,24.3,0c3.51,0.06,5.49,2.13,5.54,5.74c0.11,7.97,0.12,15.95,0,23.93
		c-0.06,3.6-2.05,5.45-5.66,5.53C252.17,304.12,248.18,304.04,244.19,304.04z M251.39,286.59c0-7.34,0-7.34-7.37-7.34
		c-6.97,0-6.97,0-6.97,6.99c0,7.32,0,7.32,7.35,7.32C251.39,293.56,251.39,293.56,251.39,286.59z"/>
	<path class="st8" d="M173.46,181.61c11.2,0,22.4,0.03,33.6-0.02c3.07-0.01,5.43,0.94,6.2,4.15c0.79,3.32-1.63,6.15-5.53,6.33
		c-3.73,0.16-7.47,0.05-11.2,0.05c-18.29,0-36.59,0-54.88,0c-1.12,0-2.25,0.04-3.35-0.11c-3.01-0.41-4.87-2.25-4.81-5.22
		c0.06-3.14,1.99-5.09,5.25-5.12c7.47-0.08,14.93-0.04,22.4-0.05C165.25,181.61,169.36,181.61,173.46,181.61z"/>
	<path class="st8" d="M246.03,181.62c3.36,0,6.71-0.07,10.06,0.03c3.42,0.1,5.7,2.21,5.75,5.09c0.05,2.87-2.2,5.25-5.58,5.32
		c-6.83,0.15-13.67,0.15-20.5,0c-3.47-0.08-5.51-2.3-5.46-5.34c0.05-3.05,2.11-4.91,5.66-5.1c0.25-0.01,0.5-0.01,0.75-0.01
		C239.82,181.61,242.92,181.61,246.03,181.62z"/>
	<path class="st9" d="M149.24,204.38c3.36,0,6.71-0.08,10.07,0.02c3.48,0.1,5.57,2.11,5.61,5.16c0.04,3.11-1.99,5.21-5.47,5.26
		c-6.84,0.1-13.67,0.09-20.51,0c-3.29-0.05-5.73-2.43-5.49-5.3c0.27-3.15,2.13-5,5.34-5.11
		C142.28,204.3,145.76,204.39,149.24,204.38z"/>
	<path class="st3" d="M197.98,28.48c26.06,0,52.11,0,78.17,0c8.5,0,12,3.51,12.02,12.02c0.01,3.87-0.06,7.73,0.02,11.59
		c0.04,2.06-0.2,3.09-2.66,2c-2.99-1.33-6.27-1.5-9.52-1.5c-52.36,0-104.72,0-157.08-0.01c-3.27,0-6.5,0.29-9.5,1.61
		c-1.99,0.87-2.36,0.14-2.34-1.68c0.06-4.86-0.13-9.73,0.07-14.59c0.24-5.87,4.4-9.43,10.79-9.44
		C144.62,28.46,171.3,28.48,197.98,28.48z M197.46,45.76c3.48,0,6.95,0.05,10.42-0.01c3.66-0.07,5.58-1.83,5.63-5
		c0.06-3.19-1.86-5.35-5.32-5.42c-7.07-0.13-14.15-0.13-21.22,0c-3.43,0.07-5.4,2.27-5.25,5.46c0.16,3.31,2.06,4.91,5.3,4.95
		C190.51,45.79,193.99,45.76,197.46,45.76z"/>
	<path class="st10" d="M197.3,158.7c-16.71,0-33.41-0.05-50.12,0.05c-2.54,0.02-3.39-0.57-3.38-3.26
		c0.12-17.33,0.11-34.66,0.01-51.99c-0.01-2.53,0.57-3.42,3.27-3.41c33.66,0.09,67.32,0.08,100.98,0.01
		c2.57-0.01,3.39,0.65,3.37,3.31c-0.11,17.33-0.15,34.66,0.02,51.99c0.03,3.06-1.12,3.37-3.67,3.35
		C230.96,158.65,214.13,158.7,197.3,158.7z"/>
	<path class="st11" d="M197.49,293.57c-7.09,0-7.09,0-7.09-6.94c0-7.38,0-7.38,7.38-7.38c7.1,0,7.1,0,7.09,6.92
		C204.85,293.57,204.85,293.57,197.49,293.57z"/>
	<path class="st12" d="M150.93,279.25c7.28,0,7.28,0,7.28,7.43c0,6.88,0,6.88-7.05,6.88c-7.29,0-7.29,0-7.29-7.41
		C143.86,279.25,143.86,279.25,150.93,279.25z"/>
	<path class="st12" d="M251.39,286.59c0,6.97,0,6.97-6.99,6.97c-7.35,0-7.35,0-7.35-7.32c0-6.99,0-6.99,6.97-6.99
		C251.39,279.25,251.39,279.25,251.39,286.59z"/>
	<path class="st13" d="M197.46,45.76c-3.48,0-6.95,0.03-10.43-0.01c-3.24-0.04-5.14-1.64-5.3-4.95c-0.15-3.19,1.81-5.4,5.25-5.46
		c7.07-0.14,14.15-0.13,21.22,0c3.46,0.06,5.37,2.22,5.32,5.42c-0.06,3.17-1.98,4.93-5.63,5C204.42,45.81,200.94,45.76,197.46,45.76
		z"/>
</g>
</svg>
